<svg width="131" height="146" viewBox="0 0 131 146" fill="none" xmlns="http://www.w3.org/2000/svg">
<path d="M2.32399 18.6063C16.6106 10.028 34.5448 10.5148 44.4495 17.8122C48.1991 20.575 50.8116 24.717 52.5337 28.38C53.1203 29.6278 53.6152 30.85 54.0266 31.9854L56.189 28.9038L56.346 28.7023C57.174 27.7449 58.6104 27.5486 59.6714 28.2927C60.8023 29.0861 61.0745 30.6467 60.282 31.7764L55.113 39.1439C54.3194 40.2742 52.7605 40.546 51.6311 39.7537L44.2636 34.5847C43.1346 33.7925 42.8592 32.2346 43.652 31.1036L43.6525 31.1024C44.4459 29.9718 46.0057 29.6999 47.1352 30.4921L48.404 31.3818C48.2775 31.0931 48.1468 30.801 48.009 30.5079C46.4485 27.1883 44.2756 23.8955 41.4831 21.838C37.5363 18.9302 31.6488 17.227 25.0526 17.2562C18.4776 17.2852 11.3188 19.0372 4.89776 22.8926C4.5566 23.0975 4.14726 23.1585 3.7612 23.0621C3.37551 22.9655 3.04364 22.7201 2.83901 22.3792L1.81013 20.6641C1.38414 19.9541 1.61423 19.0327 2.32399 18.6063Z" fill="#1F1E1B" stroke="white" stroke-width="3" stroke-linejoin="round"/>
<path d="M126.498 76.8439C135.917 105.636 120.019 125.649 103.47 132.158C95.6612 135.229 86.0902 136.618 77.7729 137.077C72.6143 137.363 67.825 137.294 64.1125 137.016L66.0785 140.147C66.8132 141.317 66.458 142.86 65.2906 143.594L65.2896 143.594C64.1209 144.327 62.5796 143.975 61.8451 142.808L61.8441 142.807L57.0559 135.186C56.3678 134.09 56.6338 132.665 57.6329 131.886L57.8428 131.739L65.464 126.951C66.6342 126.216 68.1769 126.571 68.9106 127.739L68.9115 127.739C69.6447 128.907 69.2941 130.45 68.1246 131.185L68.1236 131.185L66.5788 132.155C69.6788 132.301 73.438 132.31 77.4966 132.086C85.5671 131.64 94.5378 130.297 101.64 127.504C116.041 121.84 130.239 104.364 121.746 78.3987C121.622 78.0205 121.654 77.608 121.834 77.2531C122.014 76.8984 122.327 76.6302 122.705 76.5065L124.606 75.8854C125.393 75.6282 126.24 76.0569 126.498 76.8439Z" fill="#1F1E1B" stroke="white" stroke-width="3" stroke-linejoin="round"/>
</svg>
