<svg width="282" height="408" viewBox="0 0 282 408" fill="none" xmlns="http://www.w3.org/2000/svg">
<path d="M239.829 170.43C240.509 168.831 240.692 167.03 240.123 165.247C239.388 162.95 237.679 161.039 235.584 159.992C219.56 146.724 203.554 133.438 187.53 120.171C184.406 117.58 180.327 113.206 176.063 113.408C174.52 113.482 172.976 113.868 171.451 114.345C169.926 114.823 168.419 115.393 166.967 115.834C154.765 119.619 142.564 123.405 130.343 127.19C114.503 132.097 98.6812 137.003 82.841 141.91C69.8306 145.952 56.8203 149.977 43.81 154.02C40.0245 155.196 36.2389 156.372 32.4534 157.548C32.4534 157.548 32.2881 157.603 32.2146 157.621C28.9069 158.65 26.2239 160.635 25.1029 164.071C24.864 164.788 24.6987 165.523 24.4782 166.24C18.2854 188.016 12.0743 209.81 5.88151 231.585C5.82638 231.751 5.78959 231.916 5.73447 232.082C4.96267 233.735 4.74211 235.647 5.34853 237.503C5.40365 237.705 5.51392 237.87 5.58743 238.054C5.75281 238.642 5.97333 239.248 6.28573 239.836C6.83701 240.884 7.60885 241.637 8.50929 242.336C8.17852 242.078 7.86608 241.839 7.7742 241.766C7.8477 241.821 9.37299 242.997 9.44649 243.052C9.55675 243.126 9.66699 243.181 9.77725 243.254C10.4939 243.732 11.2474 244.173 12.0008 244.614C15.3453 246.672 18.6713 248.73 22.0157 250.789C33.8684 258.084 45.7395 265.398 57.5921 272.693C72.2196 281.697 86.8469 290.702 101.474 299.724C114.099 307.498 126.742 315.271 139.366 323.062C144.769 326.388 150.098 330.137 155.702 333.151C158.128 334.896 161.307 335.503 164.1 334.033C165.92 333.426 167.5 332.25 168.474 330.431C169.282 329.273 169.889 327.895 170.587 326.333C172.204 322.676 173.821 319.019 175.457 315.381C180.951 302.995 186.446 290.591 191.94 278.206C198.721 262.917 205.502 247.628 212.283 232.339C218.182 219.035 224.08 205.73 229.997 192.426C232.846 185.994 236.153 179.599 238.616 173.002C238.634 172.947 238.671 172.892 238.689 172.818C239.167 172.083 239.571 171.293 239.829 170.43Z" fill="white" stroke="white" stroke-width="9"/>
<path d="M176.222 122.154L231.001 167.562L231.185 167.714L231.389 167.672L231.39 167.673V167.854L231.499 167.984C231.495 167.992 231.494 167.998 231.492 168H231.252L231.214 168.084L231.132 168.109V168.269L231.12 168.297L161.444 325.341C161.441 325.346 161.438 325.351 161.436 325.355H161.086L161.031 325.793C161.028 325.816 161.024 325.834 161.021 325.848C161.018 325.848 161.014 325.847 161.011 325.846C161.008 325.846 161.006 325.845 161.005 325.844C161.004 325.844 161.003 325.844 161.003 325.844L14.1523 235.436C14.1404 235.424 14.1297 235.41 14.1172 235.399V235.309L33.7549 166.321C33.7605 166.307 33.7712 166.296 33.7861 166.291L104.745 144.298L105.223 144.151H105.224L176.189 122.155C176.206 122.15 176.217 122.153 176.22 122.153L176.222 122.154ZM14.2129 235.511C14.2244 235.527 14.2321 235.54 14.2363 235.548C14.2385 235.551 14.2404 235.555 14.2422 235.558C14.2431 235.56 14.2442 235.562 14.2451 235.564C14.2456 235.565 14.2466 235.566 14.2471 235.567L14.248 235.569H14.2471C14.2354 235.546 14.2207 235.526 14.207 235.506C14.209 235.508 14.2115 235.51 14.2129 235.511Z" fill="url(#paint0_linear_1816_792)" stroke="black"/>
<path d="M175.644 120.225C176.357 120.13 177.043 120.228 177.81 120.779C183.086 124.572 187.907 129.161 192.962 133.346C197.271 136.91 201.575 140.48 205.88 144.05C210.184 147.619 214.489 151.188 218.798 154.753V154.754C220.424 156.105 222.056 157.455 223.687 158.806C225.317 160.156 226.948 161.507 228.574 162.857L228.575 162.858C229.053 163.253 229.53 163.648 230.008 164.043C230.38 164.351 230.753 164.659 231.125 164.967C231.121 164.968 231.117 164.969 231.113 164.97C230.517 165.133 229.956 165.492 229.602 166.03C229.328 166.446 229.191 166.949 229.242 167.504C229.178 167.451 229.112 167.397 229.045 167.342C220.427 160.194 211.805 153.046 203.183 145.898L177.318 124.453C177.217 124.367 177.07 124.265 176.922 124.164C176.945 124.135 176.969 124.103 176.989 124.068C177.022 124.014 177.074 123.911 177.081 123.777C177.089 123.612 177.021 123.401 176.814 123.281C176.657 123.19 176.499 123.203 176.429 123.213C176.273 123.235 176.112 123.309 175.965 123.391L175.956 123.396L175.948 123.401C175.933 123.41 175.916 123.417 175.899 123.426C175.856 123.389 175.814 123.356 175.777 123.321C175.632 123.185 175.599 123.117 175.599 123.118L174.648 123.429C174.686 123.546 174.73 123.656 174.777 123.758C172.752 124.384 170.731 125.011 168.71 125.638C166.666 126.271 164.622 126.906 162.573 127.54H162.572C156.067 129.561 149.563 131.578 143.058 133.595C136.552 135.611 130.046 137.629 123.541 139.65C107.94 144.501 92.357 149.334 76.7559 154.167C70.6641 156.05 64.5771 157.939 58.4902 159.827C52.4032 161.715 46.316 163.603 40.2246 165.486C38.7734 165.935 37.3214 166.385 35.8701 166.834C35.8515 166.768 35.8305 166.701 35.8057 166.635L34.8662 166.978C34.8543 166.945 34.8627 166.943 34.8594 167.003C34.8568 167.049 34.8475 167.112 34.8311 167.191C34.6889 167.239 34.5924 167.265 34.5283 167.265H34.5195L34.5107 167.266C34.433 167.268 34.3569 167.275 34.2871 167.288C34.2297 167.299 34.1236 167.321 34.0234 167.388C33.97 167.423 33.8887 167.49 33.834 167.603C33.7727 167.73 33.7672 167.87 33.8066 167.992C33.8699 168.188 34.0249 168.28 34.0625 168.303C34.1768 168.371 34.3116 168.406 34.4189 168.425C34.3927 168.492 34.3695 168.558 34.3447 168.621C34.263 168.828 34.1812 169.033 34.1416 169.163L34.1396 169.171C33.6051 171.032 33.0927 172.862 32.5596 174.7L32.5586 174.703C28.9571 187.363 25.3554 200.024 21.7539 212.684C20.1549 218.235 18.5744 223.804 16.9941 229.372L16.9932 229.376C16.5781 230.88 16.146 232.385 15.7129 233.892C15.6424 233.767 15.5737 233.663 15.501 233.585C15.4283 233.506 15.2639 233.352 15.0186 233.348C14.8783 233.345 14.7473 233.394 14.6455 233.48C14.5517 233.56 14.5008 233.655 14.4736 233.726C14.4254 233.854 14.4235 233.983 14.4346 234.083C14.4305 234.14 14.4358 234.188 14.4434 234.224C14.4524 234.265 14.4644 234.299 14.4746 234.322C14.4941 234.366 14.516 234.397 14.5273 234.413C14.5335 234.421 14.5406 234.429 14.5459 234.435C14.5476 234.439 14.549 234.442 14.5508 234.445C14.6455 234.616 14.8134 234.787 15.0547 234.86C15.0554 234.863 15.056 234.865 15.0566 234.867C15.0649 234.893 15.0749 234.92 15.084 234.943C15.0913 234.962 15.1011 234.982 15.1104 235.004C15.0478 235.46 14.9864 235.922 14.9385 236.386L15.8955 236.634C15.9463 236.515 16.0465 236.205 16.127 235.956L16.1562 235.964C16.1681 235.921 16.1785 235.882 16.1885 235.846C16.1982 235.815 16.2194 235.75 16.2334 235.694L16.2324 235.693C16.2457 235.642 16.2615 235.592 16.2754 235.541C21.6028 238.872 26.9741 242.113 32.3184 245.407C38.4929 249.211 44.6674 253.011 50.8418 256.81C57.016 260.61 63.1903 264.408 69.3643 268.212C83.7345 277.069 98.1233 285.927 112.512 294.784C124.254 302.024 135.978 309.247 147.721 316.469C151.21 318.617 154.699 320.764 158.188 322.913V322.914C158.632 323.197 159.114 323.465 159.559 323.724C159.662 323.784 159.763 323.844 159.863 323.904C159.844 323.967 159.828 324.03 159.813 324.093C159.705 324.179 159.614 324.262 159.545 324.345C159.49 324.41 159.414 324.515 159.38 324.651C159.338 324.817 159.365 325.019 159.509 325.179C159.624 325.306 159.767 325.352 159.843 325.37C159.929 325.391 160.015 325.396 160.087 325.397C160.232 325.4 160.396 325.383 160.551 325.36C160.865 325.314 161.226 325.233 161.494 325.171C161.592 325.148 161.674 325.129 161.742 325.113L162.115 325.337L162.312 324.746C162.357 324.614 162.353 324.433 162.234 324.28C162.186 324.218 162.131 324.178 162.084 324.151L162.082 324.149C162.072 324.138 162.065 324.126 162.057 324.118C162.009 324.069 161.959 324.03 161.919 324.002C161.842 323.948 161.755 323.902 161.685 323.866L161.566 323.391C161.415 323.407 161.276 323.427 161.143 323.452C161.314 323.12 161.545 322.716 161.69 322.378L161.691 322.379C162.278 321.022 162.883 319.665 163.489 318.305L163.49 318.303L169.334 305.109C172.274 298.494 175.21 291.874 178.146 285.254C181.081 278.634 184.016 272.014 186.956 265.398L207.226 219.715C209.991 213.476 212.761 207.238 215.531 200.999C218.301 194.76 221.072 188.522 223.838 182.283V182.282C224.646 180.454 225.455 178.63 226.264 176.807C227.072 174.983 227.881 173.159 228.689 171.33C229.023 170.577 229.338 169.838 229.669 169.107C230.087 169.396 230.547 169.652 231.105 169.838L231.108 169.839C231.466 169.955 231.809 169.99 232.129 169.963C232.041 170.032 231.952 170.1 231.866 170.171L232.327 171.037C232.369 171.024 232.41 171.009 232.45 170.995C232.23 171.592 231.943 172.211 231.624 172.841C231.102 173.872 230.482 174.964 230.054 175.923L230.053 175.924L224.21 189.117C218.293 202.422 212.394 215.727 206.495 229.031C199.714 244.32 192.933 259.609 186.152 274.897C183.405 281.09 180.658 287.288 177.911 293.485C175.164 299.682 172.417 305.878 169.67 312.07C168.034 315.71 166.417 319.368 164.8 323.024C164.597 323.481 164.401 324.01 164.205 324.502C164.004 325.006 163.793 325.495 163.543 325.931C163.427 326.134 163.303 326.32 163.172 326.49L163.108 326.528C162.819 326.7 162.525 326.868 162.226 327.038C161.928 327.208 161.625 327.38 161.326 327.557L161.442 327.904C161.382 327.908 161.32 327.909 161.257 327.907C160.549 327.882 159.731 327.514 158.978 327.048L158.977 327.047L124.853 306.043C105.791 294.309 86.6717 282.531 67.6104 270.797C59.8926 266.047 52.1791 261.297 44.4658 256.547C36.7526 251.797 29.0392 247.046 21.3213 242.296H21.3203C18.6089 240.629 15.8763 238.988 13.1924 237.291C13.1864 237.286 13.1817 237.28 13.1758 237.275C13.1455 237.253 13.1152 237.236 13.0879 237.223C12.9248 237.068 12.8263 236.979 12.7773 236.937C12.772 236.933 12.7474 236.913 12.7178 236.892C12.7103 236.886 12.7031 236.88 12.6963 236.874C12.5927 236.782 12.5121 236.699 12.4346 236.583C12.294 236.355 12.2034 236.105 12.1396 235.821C12.1142 235.667 12.1144 235.541 12.1221 235.398C12.1273 235.302 12.136 235.169 12.1426 235.019C12.2296 234.587 12.3541 234.191 12.4814 233.718C12.8942 232.259 13.3079 230.806 13.7207 229.351C14.1341 227.895 14.5475 226.439 14.9609 224.978C17.6531 215.533 20.3408 206.092 23.0283 196.651C25.7158 187.211 28.4027 177.77 31.0947 168.325C31.3687 167.366 31.5212 166.559 31.8535 165.838C32.1648 165.163 32.615 164.624 33.4521 164.276L33.4512 164.275C34.3611 163.901 35.3267 163.604 36.3164 163.323C37.2962 163.045 38.3156 162.777 39.2881 162.472L39.2891 162.473L67.8828 153.597L67.8818 153.596L106.987 141.469C125.657 135.68 144.327 129.891 162.997 124.102H163C166.38 123.037 169.777 121.99 173.159 120.942H173.161C174.129 120.639 174.875 120.328 175.644 120.225ZM12.8447 237.583C12.8314 237.603 12.8183 237.621 12.8037 237.638C12.7888 237.627 12.7718 237.615 12.7549 237.601L12.8447 237.51C12.8447 237.532 12.8447 237.557 12.8447 237.583ZM231.378 165.934C231.671 165.854 231.976 165.845 232.257 165.908C232.313 165.951 232.364 165.99 232.413 166.02C232.452 166.045 232.535 166.095 232.635 166.118C232.65 166.121 232.688 166.128 232.739 166.13C233.257 166.541 233.401 167.218 233.228 167.851C233.117 168.254 232.887 168.59 232.588 168.784C232.338 168.946 232.012 169.029 231.601 168.938L231.419 168.889C231.122 168.789 230.862 168.665 230.616 168.523C230.679 168.291 230.742 168.058 230.802 167.827C230.862 167.596 230.923 167.368 230.983 167.141C231.011 167.129 231.04 167.116 231.07 167.104C231.134 167.087 231.194 167.071 231.235 167.057C231.248 167.054 231.263 167.049 231.276 167.044C231.283 167.042 231.293 167.038 231.304 167.033C231.306 167.032 231.342 167.02 231.381 166.996C231.393 166.989 231.416 166.974 231.442 166.952C231.459 166.938 231.527 166.882 231.575 166.781C231.602 166.724 231.632 166.633 231.622 166.52C231.611 166.401 231.559 166.302 231.494 166.23C231.386 166.111 231.256 166.083 231.232 166.078C231.161 166.062 231.101 166.067 231.094 166.067C231.075 166.068 231.059 166.07 231.052 166.071C231.038 166.073 231.024 166.075 231.013 166.077C231.126 166.018 231.249 165.97 231.378 165.934ZM230.763 166.236C230.801 166.251 230.86 166.278 230.918 166.33C230.953 166.362 230.99 166.404 231.021 166.459C231.051 166.514 231.072 166.576 231.08 166.64C231.089 166.714 231.078 166.779 231.063 166.832L230.636 166.667C230.632 166.649 230.628 166.631 230.626 166.612C230.616 166.5 230.645 166.409 230.672 166.352C230.689 166.316 230.71 166.286 230.727 166.264C230.738 166.254 230.751 166.245 230.763 166.236Z" fill="white" stroke="black"/>
<path d="M175.987 122.228L230.767 167.636L230.95 167.787L231.154 167.745L231.155 167.746V167.928L231.264 168.059C231.26 168.066 231.259 168.072 231.258 168.073H231.018L230.979 168.157L230.897 168.183V168.344L230.886 168.371L161.21 325.414C161.207 325.42 161.204 325.425 161.201 325.429H160.852L160.797 325.866C160.794 325.89 160.79 325.908 160.787 325.922C160.783 325.921 160.779 325.921 160.776 325.92C160.774 325.919 160.772 325.919 160.771 325.918C160.769 325.918 160.769 325.917 160.769 325.917L13.918 235.51C13.906 235.497 13.8953 235.484 13.8828 235.473V235.382L33.5205 166.394C33.5262 166.38 33.537 166.371 33.5508 166.365L104.511 144.372L104.51 144.371L104.988 144.225H104.989L175.955 122.229C175.972 122.224 175.982 122.226 175.985 122.227L175.987 122.228ZM13.9775 235.585C13.9891 235.601 13.9977 235.614 14.002 235.621C14.0042 235.625 14.006 235.629 14.0078 235.632C14.0088 235.634 14.0098 235.636 14.0107 235.638C14.0112 235.639 14.0122 235.64 14.0127 235.641L14.0137 235.643H14.0127C14.0016 235.621 13.9875 235.602 13.9746 235.582C13.9755 235.583 13.9768 235.584 13.9775 235.585ZM13.9307 235.573C13.9305 235.573 13.9291 235.572 13.9277 235.569C13.9268 235.566 13.9254 235.563 13.9238 235.56L13.9307 235.573Z" fill="url(#paint1_linear_1816_792)" stroke="black"/>
<path d="M175.405 120.299C176.119 120.203 176.805 120.301 177.571 120.852C182.847 124.645 187.668 129.233 192.723 133.418V133.419L218.56 154.827C220.186 156.178 221.817 157.528 223.448 158.879C225.079 160.229 226.71 161.58 228.336 162.931L228.337 162.932C229.185 163.633 230.034 164.335 230.882 165.036C230.873 165.038 230.865 165.041 230.856 165.043C230.26 165.206 229.7 165.566 229.346 166.103C229.072 166.52 228.935 167.022 228.985 167.577L228.789 167.415C220.171 160.267 211.548 153.119 202.926 145.972C194.303 138.823 185.68 131.674 177.062 124.526C176.96 124.44 176.813 124.339 176.665 124.237C176.689 124.208 176.712 124.176 176.732 124.141C176.765 124.087 176.818 123.984 176.825 123.85C176.834 123.686 176.765 123.474 176.558 123.354C176.4 123.263 176.242 123.276 176.172 123.286C176.017 123.308 175.855 123.382 175.708 123.465L175.7 123.469L175.691 123.474C175.677 123.483 175.66 123.49 175.644 123.499C175.6 123.462 175.558 123.429 175.521 123.394C175.38 123.262 175.345 123.194 175.343 123.191L174.392 123.502C174.429 123.619 174.473 123.729 174.521 123.831C172.495 124.458 170.475 125.084 168.454 125.711C166.41 126.345 164.365 126.979 162.316 127.613H162.315C155.811 129.634 149.306 131.651 142.801 133.668C136.296 135.685 129.79 137.701 123.284 139.723C115.484 142.148 107.688 144.569 99.8916 146.988L76.499 154.24C70.4073 156.124 64.3203 158.012 58.2334 159.9L39.9678 165.559C38.5167 166.009 37.0644 166.458 35.6133 166.907C35.5947 166.842 35.5737 166.775 35.5488 166.708L34.6104 167.052C34.5984 167.018 34.6068 167.017 34.6035 167.076C34.6009 167.122 34.5908 167.185 34.5742 167.266C34.4323 167.313 34.3355 167.339 34.2715 167.339H34.2539C34.1761 167.342 34.1001 167.348 34.0303 167.361C33.9729 167.372 33.8677 167.396 33.7676 167.462C33.7141 167.497 33.6319 167.564 33.5771 167.677C33.5159 167.803 33.5113 167.943 33.5508 168.065C33.614 168.261 33.768 168.354 33.8057 168.377C33.9198 168.445 34.0549 168.479 34.1621 168.498C34.1359 168.565 34.1127 168.631 34.0879 168.694C34.0062 168.901 33.9254 169.106 33.8857 169.236L33.8828 169.244C33.3482 171.106 32.8359 172.936 32.3027 174.774V174.776L21.4971 212.76L16.7383 229.445L16.7363 229.449C16.3213 230.954 15.8892 232.458 15.4561 233.966C15.3855 233.84 15.3169 233.737 15.2441 233.658C15.1715 233.58 15.0071 233.425 14.7617 233.421C14.6216 233.419 14.4904 233.467 14.3887 233.554C14.2949 233.633 14.2439 233.728 14.2168 233.8C14.1686 233.928 14.1667 234.056 14.1777 234.156C14.1736 234.213 14.179 234.262 14.1865 234.297C14.1956 234.339 14.2085 234.372 14.2188 234.395C14.2384 234.44 14.2602 234.472 14.2715 234.487C14.2775 234.495 14.2839 234.502 14.2891 234.509C14.2908 234.512 14.2922 234.515 14.2939 234.518C14.3886 234.689 14.5568 234.859 14.7979 234.932C14.7987 234.935 14.7991 234.938 14.7998 234.94C14.808 234.966 14.8181 234.993 14.8271 235.016C14.8344 235.035 14.8443 235.056 14.8535 235.077C14.791 235.533 14.7296 235.996 14.6816 236.459L15.6387 236.707C15.6895 236.588 15.7896 236.279 15.8701 236.029L15.8994 236.037C15.9112 235.994 15.9217 235.955 15.9316 235.919C15.9411 235.889 15.9616 235.827 15.9756 235.772C15.9894 235.719 16.0052 235.667 16.0195 235.614C21.3467 238.945 26.7175 242.187 32.0615 245.48C38.2361 249.284 44.4106 253.084 50.585 256.884C56.7594 260.683 62.9341 264.482 69.1084 268.286C83.4784 277.143 97.8667 286 112.255 294.857C123.997 302.098 135.722 309.32 147.465 316.542V316.541L157.932 322.986V322.987C158.375 323.27 158.858 323.538 159.302 323.797C159.405 323.857 159.507 323.917 159.607 323.977C159.589 324.04 159.571 324.103 159.557 324.166C159.449 324.252 159.357 324.336 159.288 324.418C159.233 324.483 159.157 324.587 159.123 324.724C159.081 324.89 159.108 325.091 159.252 325.251C159.367 325.379 159.51 325.424 159.586 325.442C159.672 325.463 159.758 325.469 159.83 325.471C159.975 325.473 160.139 325.456 160.294 325.433C160.609 325.388 160.969 325.306 161.237 325.244C161.335 325.221 161.418 325.202 161.486 325.186L161.859 325.409L162.057 324.818C162.101 324.686 162.096 324.506 161.978 324.353C161.929 324.291 161.873 324.25 161.826 324.224C161.816 324.212 161.809 324.2 161.801 324.191C161.753 324.142 161.702 324.103 161.662 324.075C161.585 324.022 161.499 323.975 161.429 323.939L161.311 323.465C161.159 323.48 161.019 323.5 160.886 323.525C161.057 323.193 161.291 322.788 161.436 322.45L161.435 322.449C162.021 321.093 162.627 319.737 163.233 318.378L163.234 318.376L169.077 305.182L186.7 265.472C190.081 257.855 193.457 250.242 196.834 242.63C200.211 235.018 203.588 227.406 206.969 219.789V219.788C209.734 213.549 212.504 207.311 215.274 201.072C218.045 194.834 220.815 188.595 223.581 182.356V182.355C224.389 180.527 225.198 178.704 226.007 176.88C226.815 175.056 227.624 173.232 228.433 171.403C228.766 170.65 229.081 169.911 229.412 169.181C229.83 169.469 230.291 169.725 230.85 169.911L230.853 169.912C231.21 170.029 231.552 170.065 231.872 170.037C231.784 170.106 231.695 170.175 231.609 170.245L232.075 171.108C232.119 171.094 232.162 171.078 232.205 171.063C231.988 171.662 231.701 172.283 231.383 172.915C230.864 173.944 230.243 175.039 229.815 175.996L229.814 175.998C227.867 180.407 225.919 184.799 223.972 189.19L206.257 229.103C199.476 244.392 192.695 259.682 185.914 274.971C183.167 281.163 180.42 287.361 177.673 293.558C174.926 299.755 172.179 305.951 169.432 312.143C168.614 313.964 167.8 315.788 166.989 317.615L164.562 323.099C164.359 323.555 164.163 324.083 163.967 324.575C163.765 325.08 163.554 325.568 163.305 326.004C163.188 326.207 163.064 326.394 162.934 326.563L162.87 326.601C162.581 326.773 162.286 326.941 161.987 327.111C161.689 327.281 161.386 327.452 161.088 327.63L161.204 327.977C161.144 327.981 161.082 327.984 161.019 327.981C160.311 327.956 159.493 327.588 158.739 327.121L158.738 327.12L141.676 316.618C135.989 313.117 130.301 309.617 124.614 306.116C105.555 294.383 86.4316 282.604 67.3721 270.871L21.083 242.369H21.082C18.3696 240.701 15.6361 239.06 12.9512 237.362C12.9462 237.358 12.9424 237.353 12.9375 237.349C12.9072 237.327 12.877 237.309 12.8496 237.296C12.6866 237.142 12.588 237.052 12.5391 237.011C12.5336 237.006 12.509 236.986 12.4795 236.966C12.472 236.959 12.4648 236.953 12.458 236.947C12.3543 236.855 12.2738 236.772 12.1963 236.656C12.0555 236.427 11.9651 236.177 11.9014 235.892C11.8762 235.739 11.8761 235.614 11.8838 235.472C11.889 235.375 11.8977 235.242 11.9043 235.093C11.9913 234.66 12.1159 234.264 12.2432 233.791C12.6559 232.332 13.0696 230.879 13.4824 229.425C13.8958 227.969 14.3092 226.512 14.7227 225.052C17.4148 215.606 20.1025 206.165 22.79 196.724C25.4775 187.284 28.1654 177.843 30.8574 168.398L30.8564 168.397C31.1303 167.439 31.284 166.632 31.6162 165.911C31.9274 165.236 32.3769 164.697 33.2139 164.349L33.2129 164.349C34.1228 163.974 35.0884 163.678 36.0781 163.396C37.0579 163.118 38.0773 162.85 39.0498 162.545L39.0508 162.546C43.8195 161.066 48.5837 159.588 53.3477 158.108C58.1117 156.629 62.876 155.149 67.6445 153.67L106.749 141.542L162.759 124.177L162.762 124.176C166.141 123.11 169.539 122.063 172.921 121.016H172.923C173.891 120.712 174.637 120.401 175.405 120.299ZM12.6064 237.656C12.593 237.676 12.5802 237.695 12.5654 237.712C12.5503 237.701 12.5328 237.69 12.5156 237.676L12.6064 237.583C12.6064 237.606 12.6065 237.63 12.6064 237.656ZM231.121 166.008C231.423 165.925 231.739 165.917 232.026 165.987C232.079 166.028 232.128 166.065 232.175 166.094C232.214 166.118 232.296 166.168 232.396 166.191C232.409 166.194 232.44 166.199 232.481 166.202C233 166.613 233.145 167.291 232.972 167.925C232.862 168.327 232.63 168.663 232.331 168.857C232.081 169.019 231.755 169.102 231.344 169.012L231.162 168.962C230.865 168.863 230.605 168.738 230.359 168.597C230.422 168.364 230.485 168.131 230.545 167.9C230.605 167.669 230.666 167.44 230.727 167.214C230.755 167.201 230.784 167.189 230.815 167.178C230.879 167.16 230.938 167.144 230.979 167.131C230.992 167.127 231.006 167.122 231.02 167.117C231.026 167.115 231.036 167.111 231.047 167.106C231.049 167.106 231.085 167.093 231.124 167.069C231.136 167.062 231.16 167.047 231.187 167.025C231.203 167.011 231.272 166.953 231.319 166.852C231.346 166.795 231.376 166.704 231.365 166.592C231.354 166.473 231.301 166.374 231.236 166.303C231.128 166.184 231 166.157 230.976 166.151C230.903 166.135 230.843 166.14 230.837 166.141C230.818 166.142 230.803 166.143 230.795 166.144C230.78 166.146 230.765 166.149 230.754 166.151C230.868 166.092 230.991 166.043 231.121 166.008ZM230.506 166.309C230.544 166.324 230.603 166.351 230.661 166.403C230.697 166.435 230.734 166.477 230.765 166.532C230.795 166.588 230.815 166.649 230.823 166.713C230.832 166.787 230.821 166.852 230.807 166.904L230.379 166.74C230.375 166.723 230.371 166.706 230.369 166.687C230.358 166.575 230.388 166.484 230.415 166.427C230.432 166.391 230.451 166.361 230.468 166.339C230.48 166.329 230.493 166.319 230.506 166.309Z" fill="black" stroke="black"/>
<path d="M84.7725 214.349V214.35C84.4203 215.505 83.0075 215.877 82.1406 215.052H82.1396C81.7645 214.694 81.3908 214.335 81.0166 213.976L81.3926 213.875C81.9697 213.72 82.5429 213.569 83.1172 213.417C83.6912 213.266 84.2673 213.113 84.8477 212.957L85.2295 212.853L84.7725 214.349ZM33.5479 164.837C33.8719 164.81 34.2216 164.891 34.5586 165.155L34.7021 165.279C35.7305 166.261 36.7541 167.244 37.7783 168.227L40.8574 171.177C48.1067 178.123 55.3606 185.065 62.6143 192.006C68.9761 198.094 75.3367 204.183 81.6953 210.274C81.3905 211.266 81.0862 212.258 80.7842 213.248L80.6641 213.638C80.1305 213.127 79.5966 212.616 79.0635 212.104C78.0392 211.121 77.0138 210.137 75.9844 209.154C68.7352 202.208 61.4812 195.266 54.2275 188.325C47.025 181.432 39.8229 174.54 32.625 167.643V167.625L32.4697 167.476C32.0901 167.115 31.9724 166.73 31.9951 166.38C32.0189 166.016 32.1991 165.646 32.4922 165.353C32.7851 165.06 33.1647 164.87 33.5479 164.837ZM83.7275 212.219C83.4389 212.296 83.151 212.374 82.8623 212.451C82.5766 212.526 82.2907 212.602 82.0039 212.678C82.17 212.135 82.3369 211.592 82.5039 211.048C82.9116 211.439 83.3199 211.829 83.7275 212.219ZM103.826 143.037C104.177 142.877 104.601 142.854 105.001 142.963C105.401 143.073 105.741 143.306 105.941 143.61C106.134 143.902 106.221 144.294 106.069 144.797C105.638 146.211 105.202 147.63 104.766 149.049C104.329 150.468 103.893 151.888 103.461 153.303L85.3672 212.404L85.0635 212.113C84.3201 211.4 83.5755 210.689 82.832 209.977C82.9029 209.747 82.9741 209.516 83.0449 209.286C83.4813 207.866 83.9187 206.447 84.3506 205.032L103.039 143.986V143.985C103.191 143.487 103.487 143.192 103.826 143.037Z" fill="black" stroke="black"/>
<path d="M163.629 189.916V189.917C163.5 190.541 163.092 190.856 162.588 190.951C162.054 191.052 161.423 190.898 160.973 190.544C160.561 190.215 160.148 189.887 159.736 189.559L160.261 189.417C160.838 189.261 161.412 189.11 161.986 188.958C162.56 188.807 163.136 188.655 163.716 188.498L163.937 188.438C163.834 188.931 163.732 189.423 163.629 189.916ZM104.016 143.281C104.615 142.686 105.579 142.47 106.361 143.089V143.09C107.52 144.019 108.684 144.943 109.846 145.866C111.008 146.79 112.17 147.713 113.326 148.64L113.328 148.641C121.652 155.265 129.976 161.895 138.301 168.524C145.612 174.346 152.925 180.168 160.236 185.988C160.039 186.936 159.842 187.885 159.642 188.83L159.523 189.389C158.846 188.849 158.17 188.309 157.492 187.771C156.33 186.847 155.168 185.924 154.012 184.997L154.011 184.996L129.037 165.114C120.713 158.484 112.389 151.855 104.064 145.231C103.657 144.906 103.534 144.56 103.544 144.254C103.555 143.928 103.719 143.576 104.016 143.281ZM162.496 187.787C162.241 187.855 161.986 187.924 161.73 187.991C161.416 188.074 161.102 188.159 160.786 188.242C160.895 187.724 161.004 187.204 161.112 186.685C161.574 187.052 162.035 187.42 162.496 187.787ZM175.344 120.758C175.655 120.602 176.054 120.575 176.454 120.687C177.261 120.912 177.887 121.629 177.687 122.606C177.393 123.993 177.103 125.385 176.813 126.776C176.524 128.168 176.235 129.559 175.941 130.946V130.947C171.975 149.893 168.025 168.823 164.076 187.768L163.896 187.624C163.044 186.946 162.193 186.267 161.341 185.589C161.391 185.347 161.443 185.106 161.493 184.865C161.783 183.472 162.072 182.081 162.366 180.695V180.694C166.483 161.031 170.58 141.386 174.678 121.724L174.688 121.674V121.666C174.802 121.178 175.056 120.903 175.344 120.758Z" fill="black" stroke="black"/>
<path d="M82.168 212.453C82.8946 212.029 83.8489 212.079 84.4092 212.903V212.904C85.9898 215.21 87.5752 217.517 89.1602 219.823L93.9102 226.741C100.865 236.876 107.821 247.015 114.776 257.154L135.643 287.567L161.865 325.789V325.788C162.162 326.222 162.187 326.608 162.089 326.922C161.985 327.253 161.726 327.559 161.366 327.769C160.64 328.193 159.686 328.143 159.126 327.32L159.125 327.319L154.375 320.4C152.79 318.094 151.205 315.787 149.625 313.482L149.624 313.481C142.669 303.347 135.714 293.207 128.759 283.069C121.803 272.93 114.848 262.79 107.893 252.656H107.892C103.518 246.288 99.1502 239.916 94.7812 233.544C90.4123 227.172 86.0426 220.8 81.6689 214.433C81.3731 213.999 81.348 213.614 81.4463 213.3C81.5498 212.97 81.8082 212.663 82.168 212.453Z" fill="black" stroke="black"/>
<path d="M162.451 187.565C162.866 187.565 163.26 187.699 163.542 187.943C163.813 188.177 164.007 188.535 164.004 189.058C163.949 194.681 163.894 200.323 163.839 205.964L163.159 279.083V279.084C163.031 294.483 162.883 309.882 162.736 325.281V325.282C162.733 325.807 162.532 326.168 162.255 326.405C161.968 326.65 161.57 326.784 161.155 326.784C160.741 326.784 160.346 326.65 160.064 326.406C159.794 326.172 159.598 325.814 159.602 325.29C159.657 319.667 159.711 314.025 159.767 308.384C159.877 296.201 159.992 284.012 160.106 271.824L160.447 235.265C160.576 219.866 160.722 204.467 160.869 189.068V189.067C160.873 188.542 161.074 188.181 161.351 187.945C161.638 187.699 162.036 187.565 162.451 187.565Z" fill="black" stroke="black"/>
<path d="M231.702 165.928C232.206 165.772 232.597 165.857 232.888 166.047C233.191 166.245 233.422 166.583 233.532 166.983C233.753 167.788 233.456 168.664 232.508 168.96L232.499 168.963C232.401 168.995 232.282 169.03 232.151 169.067L232.14 169.07L232.128 169.074C224.497 171.677 216.71 173.91 208.961 176.266L205.643 177.284C196.555 180.096 187.464 182.912 178.372 185.73L151.102 194.19L87.7598 213.835L35.5527 230.024C31.9142 231.154 28.2752 232.284 24.6367 233.414L13.7217 236.805C13.2185 236.96 12.8275 236.875 12.5371 236.685C12.234 236.487 12.0014 236.149 11.8916 235.749C11.6709 234.944 11.968 234.068 12.916 233.772L12.9258 233.768C13.0237 233.736 13.1416 233.702 13.2725 233.665L13.2842 233.662L13.2959 233.657C22.0171 230.683 30.9411 228.191 39.7812 225.447V225.448C57.9555 219.825 76.1481 214.183 94.3223 208.542L157.664 188.897H157.665C166.366 186.196 175.067 183.499 183.768 180.803C192.469 178.106 201.17 175.409 209.871 172.708C217.148 170.448 224.425 168.187 231.702 165.927V165.928Z" fill="black" stroke="black"/>
<path d="M270.54 40.7498C269.184 40.8392 267.841 40.8562 266.494 40.8195C266.387 40.8266 266.279 40.8158 266.171 40.805C265.483 40.7069 264.782 40.6637 264.093 40.5478C262.899 40.3757 261.719 40.1488 260.552 39.8494C259.969 39.7086 259.403 39.5488 258.819 39.3901C258.71 39.3615 258.363 39.259 258.071 39.1886C255.911 38.5066 253.794 37.3739 251.856 36.2472C251.372 35.9744 250.919 35.628 250.418 35.3743C250.248 35.2421 250.061 35.129 249.891 34.9969C248.95 34.3063 248.042 33.5776 247.167 32.8109C246.292 32.0442 245.45 31.2395 244.642 30.3968C244.45 30.2122 244.295 30.0254 244.178 29.8897C243.887 29.5505 243.595 29.1933 243.321 28.8529C241.893 27.0296 240.414 24.9944 239.431 22.855C239.366 22.68 239.259 22.4183 239.132 22.122C238.899 21.5818 238.665 21.0237 238.449 20.4645C238.017 19.346 237.637 18.2062 237.292 17.0461C237.128 16.4655 236.999 15.8647 236.835 15.2841C236.83 15.2127 236.791 15.1616 236.786 15.0902C236.784 15.0545 236.783 15.0367 236.78 15.001C236.56 13.5639 236.376 12.1245 236.262 10.6803C235.941 6.34661 232.075 2.89184 227.703 3.18016L226.865 3.23546C222.493 3.52378 219.113 7.43849 219.364 11.7947C219.454 13.1509 219.471 14.4939 219.434 15.8404C219.441 15.9474 219.43 16.0557 219.42 16.1639C219.322 16.8514 219.278 17.5531 219.162 18.2418C218.99 19.4359 218.763 20.6158 218.464 21.7825C218.323 22.3653 218.165 22.9493 218.005 23.5154C217.976 23.6248 217.874 23.972 217.802 24.2455C217.12 26.4052 215.989 28.5409 214.879 30.46C214.606 30.9439 214.259 31.3968 214.006 31.8974C213.873 32.0675 213.76 32.2542 213.628 32.4242C212.937 33.3658 212.209 34.2741 211.442 35.149C210.675 36.024 209.871 36.8656 209.028 37.6739C208.843 37.8653 208.657 38.021 208.521 38.1374C208.182 38.4286 207.825 38.721 207.484 38.9943C205.661 40.4229 203.626 41.9012 201.486 42.8846C201.311 42.9499 201.05 43.0567 200.753 43.1838C200.213 43.4165 199.655 43.6505 199.096 43.8666C197.977 44.2988 196.837 44.6786 195.677 45.024C195.097 45.1877 194.496 45.3169 193.915 45.4807C193.844 45.4854 193.793 45.5246 193.722 45.5293C193.686 45.5317 193.668 45.5329 193.632 45.5352C192.195 45.7555 190.756 45.94 189.312 46.0532C184.978 46.3748 181.523 50.2407 181.811 54.6124L181.867 55.451C182.155 59.8228 186.07 63.2026 190.426 62.9512C191.782 62.8617 193.125 62.8448 194.472 62.8815C194.579 62.8744 194.687 62.8852 194.795 62.896C195.483 62.994 196.184 63.0373 196.873 63.1532C198.067 63.3253 199.247 63.5522 200.414 63.8516C200.997 63.9924 201.563 64.1522 202.147 64.3108C202.256 64.3395 202.603 64.442 202.895 64.5124C205.054 65.1944 207.172 66.3271 209.109 67.4359C209.593 67.7087 210.046 68.0551 210.547 68.3089C210.717 68.441 210.903 68.5542 211.073 68.6864C212.015 69.377 212.923 70.1056 213.798 70.8723C214.673 71.639 215.515 72.4436 216.323 73.2864C216.514 73.4709 216.67 73.6578 216.787 73.7935C217.078 74.1328 217.37 74.4898 217.643 74.8302C219.072 76.6536 220.55 78.6887 221.534 80.8282C221.599 81.0031 221.706 81.2649 221.833 81.5612C222.066 82.1014 222.3 82.6594 222.516 83.2186C222.948 84.3371 223.328 85.4768 223.673 86.6369C223.837 87.2175 223.966 87.8183 224.13 88.3989C224.134 88.4703 224.174 88.5216 224.178 88.593C224.181 88.6287 224.182 88.6464 224.184 88.6821C224.405 90.1192 224.589 91.5588 224.702 93.0029C225.024 97.3366 228.89 100.791 233.262 100.503L234.1 100.448C238.472 100.159 241.852 96.2447 241.6 91.8885C241.511 90.5324 241.494 89.1894 241.531 87.8429C241.524 87.7358 241.534 87.6275 241.545 87.5192C241.643 86.8317 241.686 86.1299 241.802 85.4412C241.975 84.2471 242.201 83.0673 242.501 81.9006C242.642 81.3178 242.8 80.734 242.96 80.1679C242.987 80.0406 243.091 79.7111 243.162 79.4197C243.843 77.2601 244.976 75.1423 246.085 73.2054C246.358 72.7214 246.704 72.2684 246.958 71.7678C247.09 71.5978 247.203 71.4111 247.335 71.2411C248.026 70.2995 248.755 69.3913 249.521 68.5163C250.288 67.6414 251.093 66.7998 251.936 65.9915C252.12 65.8001 252.307 65.6443 252.443 65.5278C252.782 65.2366 253.139 64.9444 253.479 64.671C255.303 63.2425 257.338 61.7642 259.477 60.7808C259.652 60.7155 259.914 60.6086 260.21 60.4815C260.751 60.2487 261.309 60.0148 261.868 59.7987C262.986 59.3665 264.126 58.9866 265.286 58.6413C265.867 58.4776 266.468 58.3483 267.048 58.1846C267.12 58.1799 267.171 58.1407 267.242 58.136C267.278 58.1337 267.296 58.1325 267.331 58.1301C268.768 57.9099 270.208 57.7254 271.652 57.6122C275.843 57.3 279.636 53.3939 279.152 49.0529L279.097 48.2142C278.809 43.8425 274.894 40.4626 270.538 40.7141L270.54 40.7498ZM244.103 29.8408C243.889 29.5861 243.929 29.6373 244.103 29.8408V29.8408ZM208.42 38.2337C208.165 38.4476 208.216 38.4084 208.42 38.2337V38.2337ZM216.813 73.9172C216.987 74.1207 217.027 74.1719 216.813 73.9172V73.9172ZM252.496 65.5243C252.7 65.3496 252.751 65.3104 252.496 65.5243V65.5243Z" fill="white" stroke="white"/>
<path d="M227.946 13.7531C230.544 34.1591 248.014 49.4681 268.584 49.3649C248.179 51.9641 232.871 69.4337 232.974 90.0034C230.375 69.5977 212.904 54.2896 192.334 54.3937C212.741 51.7952 228.05 34.3242 227.946 13.7531Z" fill="url(#paint2_linear_1816_792)" stroke="black"/>
<path d="M234.389 92.7721L234.876 93.2C234.631 93.6257 234.187 93.9373 233.675 93.9711L232.836 94.0264C232.311 94.0609 231.821 93.806 231.524 93.4024L231.936 92.9339L233.081 91.6262L234.389 92.7721ZM232.329 90.9672L232.005 91.337C231.998 91.1148 231.994 90.893 231.991 90.6714L232.329 90.9672ZM234.109 91.1973L233.74 90.8742L233.803 90.8035L234.034 90.5387C234.06 90.7577 234.086 90.9771 234.109 91.1973ZM260 50.4354C262.952 51.0506 266.004 51.3621 269.12 51.3313C249.643 53.826 234.918 70.6357 235.011 90.2726C234.63 87.1753 233.919 84.1857 232.919 81.3352C235.979 67.1259 246.312 55.3403 260 50.4354ZM200.983 54.3217C215.194 57.3817 226.978 67.716 231.883 81.4045C231.286 84.2716 230.976 87.233 230.987 90.2552C228.374 70.9054 211.622 56.3112 192.068 56.4109C195.158 56.0302 198.139 55.3191 200.983 54.3217ZM232.534 83.3719C233.176 85.4925 233.656 87.6854 233.958 89.9379L231.989 90.0677C231.99 87.7952 232.176 85.5583 232.534 83.3719ZM271.03 48.1009C271.535 48.0642 271.891 48.2293 272.133 48.4744C272.385 48.7297 272.541 49.1008 272.567 49.5008C272.593 49.9008 272.488 50.2925 272.271 50.5842C272.257 50.6022 272.241 50.6186 272.227 50.636C272.16 50.6974 272.086 50.7519 272.007 50.8003L271.531 50.3844L269.136 48.2855C269.411 48.2527 269.687 48.2202 269.964 48.1928L271.03 48.1009ZM189.385 53.3386L190.692 54.4836L189.547 55.7913L189.132 56.264C188.718 56.0162 188.417 55.578 188.384 55.0753L188.329 54.2363C188.295 53.721 188.54 53.2379 188.931 52.9399L189.385 53.3386ZM191.78 55.4366C191.561 55.4627 191.341 55.4886 191.121 55.5113L191.444 55.1426L191.78 55.4366ZM269.933 50.3136C269.885 50.3151 269.836 50.3151 269.788 50.3164C269.755 50.2537 269.728 50.1859 269.705 50.1134L269.933 50.3136ZM268.628 49.7655C268.641 49.966 268.674 50.1546 268.724 50.3308C266.43 50.3323 264.173 50.1462 261.967 49.7849C264.088 49.1419 266.282 48.664 268.535 48.3623L268.628 49.7655ZM192.252 53.3913C194.524 53.393 196.76 53.5785 198.946 53.9363C196.826 54.5789 194.633 55.0581 192.381 55.3597L192.252 53.3913ZM229.929 13.2213C232.406 32.6157 249.076 47.3 268.602 47.343C265.6 47.7306 262.701 48.4295 259.933 49.4004C245.723 46.3402 233.937 36.0069 229.033 22.3185C229.646 19.3735 229.958 16.329 229.929 13.2213ZM225.943 13.7347C226.331 16.7301 227.029 19.6233 227.998 22.3858C224.938 36.5965 214.604 48.3812 200.915 53.2858C198.054 52.6898 195.099 52.3807 192.083 52.3905C211.354 49.7969 225.91 33.1804 225.943 13.7347ZM191.647 53.394L191.414 53.6609L191.351 53.7316L190.981 53.4076C191.203 53.401 191.425 53.397 191.647 53.394ZM228.928 13.6543C228.926 15.9272 228.74 18.1644 228.382 20.3512C227.739 18.2304 227.261 16.0368 226.96 13.7841L228.928 13.6543ZM228.924 13.0487L228.588 12.7538L228.911 12.3851C228.917 12.6066 228.921 12.8278 228.924 13.0487ZM227.177 12.8469L227.115 12.9185L226.883 13.1824C226.857 12.9633 226.831 12.7439 226.808 12.5238L227.177 12.8469ZM227.28 9.78462L228.119 9.72929C228.625 9.69591 229.1 9.93204 229.399 10.3113L228.982 10.7881L227.836 12.0949L226.078 10.5548C226.323 10.1293 226.768 9.81847 227.28 9.78462Z" fill="white" stroke="black"/>
<path d="M227.946 13.7531C230.544 34.1591 248.014 49.4681 268.584 49.3649C248.179 51.9641 232.871 69.4337 232.974 90.0034C230.375 69.5977 212.904 54.2896 192.334 54.3937C212.741 51.7952 228.05 34.3242 227.946 13.7531Z" fill="url(#paint3_linear_1816_792)" stroke="black"/>
<path d="M234.389 92.7721L234.876 93.2C234.631 93.6257 234.187 93.9373 233.675 93.9711L232.836 94.0264C232.311 94.0609 231.821 93.806 231.524 93.4024L231.936 92.9339L233.081 91.6262L234.389 92.7721ZM232.329 90.9672L232.005 91.337C231.998 91.1148 231.994 90.893 231.991 90.6714L232.329 90.9672ZM234.109 91.1973L233.74 90.8742L233.803 90.8035L234.034 90.5387C234.06 90.7577 234.086 90.9771 234.109 91.1973ZM260 50.4354C262.952 51.0506 266.004 51.3621 269.12 51.3313C249.643 53.826 234.918 70.6357 235.011 90.2726C234.63 87.1753 233.919 84.1857 232.919 81.3352C235.979 67.1259 246.312 55.3403 260 50.4354ZM200.983 54.3217C215.194 57.3817 226.978 67.716 231.883 81.4045C231.286 84.2716 230.976 87.233 230.987 90.2552C228.374 70.9054 211.622 56.3112 192.068 56.4109C195.158 56.0302 198.139 55.3191 200.983 54.3217ZM232.534 83.3719C233.176 85.4925 233.656 87.6854 233.958 89.9379L231.989 90.0677C231.99 87.7952 232.176 85.5583 232.534 83.3719ZM271.03 48.1009C271.535 48.0642 271.891 48.2293 272.133 48.4744C272.385 48.7297 272.541 49.1008 272.567 49.5008C272.593 49.9008 272.488 50.2925 272.271 50.5842C272.257 50.6022 272.241 50.6186 272.227 50.636C272.16 50.6974 272.086 50.7519 272.007 50.8003L271.531 50.3844L269.136 48.2855C269.411 48.2527 269.687 48.2202 269.964 48.1928L271.03 48.1009ZM189.385 53.3386L190.692 54.4836L189.547 55.7913L189.132 56.264C188.718 56.0162 188.417 55.578 188.384 55.0753L188.329 54.2363C188.295 53.721 188.54 53.2379 188.931 52.9399L189.385 53.3386ZM191.78 55.4366C191.561 55.4627 191.341 55.4886 191.121 55.5113L191.444 55.1426L191.78 55.4366ZM269.933 50.3136C269.885 50.3151 269.836 50.3151 269.788 50.3164C269.755 50.2537 269.728 50.1859 269.705 50.1134L269.933 50.3136ZM268.628 49.7655C268.641 49.966 268.674 50.1546 268.724 50.3308C266.43 50.3323 264.173 50.1462 261.967 49.7849C264.088 49.1419 266.282 48.664 268.535 48.3623L268.628 49.7655ZM192.252 53.3913C194.524 53.393 196.76 53.5785 198.946 53.9363C196.826 54.5789 194.633 55.0581 192.381 55.3597L192.252 53.3913ZM229.929 13.2213C232.406 32.6157 249.076 47.3 268.602 47.343C265.6 47.7306 262.701 48.4295 259.933 49.4004C245.723 46.3402 233.937 36.0069 229.033 22.3185C229.646 19.3735 229.958 16.329 229.929 13.2213ZM225.943 13.7347C226.331 16.7301 227.029 19.6233 227.998 22.3858C224.938 36.5965 214.604 48.3812 200.915 53.2858C198.054 52.6898 195.099 52.3807 192.083 52.3905C211.354 49.7969 225.91 33.1804 225.943 13.7347ZM191.647 53.394L191.414 53.6609L191.351 53.7316L190.981 53.4076C191.203 53.401 191.425 53.397 191.647 53.394ZM228.928 13.6543C228.926 15.9272 228.74 18.1644 228.382 20.3512C227.739 18.2304 227.261 16.0368 226.96 13.7841L228.928 13.6543ZM228.924 13.0487L228.588 12.7538L228.911 12.3851C228.917 12.6066 228.921 12.8278 228.924 13.0487ZM227.177 12.8469L227.115 12.9185L226.883 13.1824C226.857 12.9633 226.831 12.7439 226.808 12.5238L227.177 12.8469ZM227.28 9.78462L228.119 9.72929C228.625 9.69591 229.1 9.93204 229.399 10.3113L228.982 10.7881L227.836 12.0949L226.078 10.5548C226.323 10.1293 226.768 9.81847 227.28 9.78462Z" fill="black" stroke="black"/>
<path d="M107.975 338.834C106.92 339.202 105.86 339.51 104.785 339.777C104.702 339.806 104.613 339.821 104.525 339.836C103.959 339.91 103.394 340.029 102.822 340.089C101.838 340.214 100.854 340.293 99.8636 340.312C99.371 340.329 98.8873 340.326 98.3898 340.329C98.2968 340.33 97.9991 340.325 97.7528 340.333C95.8919 340.267 93.9653 339.834 92.1824 339.367C91.739 339.257 91.3042 339.082 90.8518 338.99C90.6881 338.923 90.5153 338.874 90.3516 338.807C89.454 338.466 88.5744 338.088 87.7128 337.673C86.8513 337.257 86.0079 336.805 85.1825 336.314C84.9903 336.21 84.826 336.096 84.7039 336.014C84.3987 335.809 84.0887 335.59 83.7974 335.381C82.2653 334.249 80.6473 332.961 79.3986 331.482C79.3085 331.358 79.1664 331.174 79.0007 330.967C78.6977 330.59 78.3899 330.199 78.0959 329.803C77.508 329.012 76.9569 328.192 76.4287 327.349C76.1715 326.925 75.9372 326.477 75.6801 326.053C75.6607 325.997 75.6184 325.965 75.599 325.91C75.5893 325.882 75.5844 325.868 75.5747 325.84C75.0848 324.75 74.6227 323.65 74.2161 322.531C73.0102 319.167 69.1888 317.278 65.7882 318.466L65.1358 318.694C61.7351 319.882 59.9162 323.726 61.0715 327.122C61.4399 328.177 61.7481 329.237 62.0145 330.312C62.0436 330.396 62.0588 330.484 62.074 330.572C62.1472 331.138 62.2669 331.704 62.3263 332.275C62.4519 333.259 62.5311 334.243 62.5499 335.234C62.5662 335.726 62.5687 336.224 62.5663 336.707C62.5677 336.8 62.5626 337.098 62.5659 337.33C62.4995 339.191 62.0716 341.132 61.6133 342.896C61.5034 343.339 61.3283 343.774 61.2371 344.227C61.1697 344.39 61.121 344.563 61.0535 344.727C60.713 345.624 60.335 346.504 59.9195 347.366C59.504 348.227 59.0511 349.071 58.5607 349.896C58.4565 350.088 58.3426 350.252 58.2607 350.375C58.0558 350.68 57.8371 350.99 57.6273 351.281C56.4961 352.813 55.208 354.431 53.7286 355.68C53.6043 355.77 53.4203 355.912 53.2135 356.078C52.8365 356.381 52.4457 356.689 52.05 356.982C51.2586 357.57 50.4388 358.122 49.5954 358.65C49.1713 358.907 48.7236 359.141 48.2995 359.398C48.244 359.418 48.2121 359.46 48.1565 359.479C48.1288 359.489 48.1149 359.494 48.0872 359.504C46.9968 359.994 45.8967 360.456 44.7772 360.862C41.414 362.068 39.525 365.89 40.7128 369.29L40.9407 369.943C42.1286 373.343 45.9721 375.162 49.3687 374.007C50.4236 373.638 51.484 373.33 52.559 373.064C52.6422 373.035 52.7304 373.02 52.8185 373.004C53.3847 372.931 53.9503 372.811 54.5214 372.752C55.5054 372.626 56.4901 372.547 57.4802 372.529C57.9729 372.512 58.4565 372.515 58.954 372.512C59.047 372.511 59.3447 372.516 59.591 372.508C61.4519 372.574 63.3785 373.007 65.1566 373.46C65.5999 373.57 66.0348 373.745 66.4872 373.836C66.6509 373.904 66.8236 373.953 66.9873 374.02C67.885 374.361 68.7646 374.739 69.6261 375.154C70.4876 375.57 71.3311 376.022 72.1565 376.513C72.3486 376.617 72.513 376.731 72.635 376.813C72.9402 377.018 73.2502 377.237 73.5415 377.446C75.0736 378.578 76.6916 379.866 77.9403 381.345C78.0304 381.469 78.1726 381.653 78.3383 381.86C78.6413 382.237 78.9491 382.628 79.2431 383.024C79.831 383.815 80.3821 384.635 80.9103 385.478C81.1675 385.902 81.4016 386.35 81.6588 386.774C81.6782 386.83 81.7206 386.862 81.74 386.917C81.7497 386.945 81.7545 386.959 81.7642 386.986C82.2541 388.077 82.7162 389.177 83.1228 390.296C84.3288 393.66 88.1501 395.549 91.5508 394.361L92.2032 394.133C95.6039 392.945 97.4228 389.101 96.2676 385.705C95.8991 384.65 95.5909 383.59 95.3245 382.515C95.2954 382.431 95.2801 382.343 95.2649 382.255C95.1917 381.689 95.072 381.123 95.0127 380.552C94.887 379.568 94.8079 378.583 94.7891 377.593C94.7727 377.101 94.7703 376.603 94.7727 376.12C94.7665 376.013 94.7763 375.729 94.7682 375.483C94.8345 373.622 95.2674 371.695 95.7209 369.917C95.8308 369.474 96.0059 369.039 96.0971 368.586C96.1645 368.423 96.2131 368.25 96.2805 368.086C96.6211 367.189 96.9991 366.309 97.4146 365.447C97.8301 364.586 98.283 363.742 98.7734 362.917C98.8776 362.725 98.9914 362.561 99.0734 362.438C99.2782 362.133 99.497 361.823 99.7067 361.532C100.838 360 102.126 358.382 103.606 357.133C103.73 357.043 103.914 356.901 104.121 356.735C104.498 356.432 104.888 356.124 105.284 355.83C106.076 355.243 106.895 354.691 107.739 354.163C108.163 353.906 108.611 353.672 109.035 353.415C109.09 353.395 109.122 353.353 109.178 353.334C109.205 353.324 109.219 353.319 109.247 353.309C110.337 352.819 111.437 352.357 112.557 351.951C115.809 350.784 117.957 346.856 116.621 343.523L116.393 342.87C115.205 339.47 111.362 337.651 107.965 338.806L107.975 338.834ZM84.6338 335.992C84.4084 335.837 84.4507 335.869 84.6338 335.992V335.992ZM58.2016 350.473C58.0468 350.698 58.0787 350.656 58.2016 350.473V350.473ZM72.6829 376.905C72.866 377.028 72.9083 377.06 72.6829 376.905V376.905ZM99.115 362.424C99.238 362.241 99.2699 362.198 99.115 362.424V362.424Z" fill="white"/>
<path d="M110.385 345.733L110.157 345.08C92.8762 351.117 73.9789 342.004 67.9426 324.723L67.2902 324.95C73.3265 342.231 64.2133 361.129 46.9323 367.165L47.1602 367.817C64.4412 361.781 83.3385 370.894 89.3748 388.175L90.0272 387.947C83.9909 370.666 93.1041 351.769 110.385 345.733Z" fill="url(#paint4_linear_1816_792)"/>
<path d="M111.938 345.19L111.711 344.537C111.415 343.691 110.446 343.235 109.613 343.526C93.2738 349.093 75.3316 340.44 69.5146 324.188C69.2189 323.342 68.2637 322.881 67.417 323.177L66.7646 323.405C65.9179 323.7 65.4621 324.67 65.753 325.502C71.3202 341.842 62.6676 359.784 46.4157 365.601C45.569 365.896 45.1083 366.852 45.4041 367.698L45.632 368.351C45.9277 369.197 46.8968 369.653 47.7297 369.362C64.0688 363.795 82.011 372.448 87.828 388.7C88.1237 389.546 89.0789 390.007 89.9256 389.711L90.578 389.483C91.4247 389.188 91.8805 388.219 91.5896 387.386C86.0224 371.047 94.675 353.104 110.927 347.287C112.935 346.57 111.844 343.447 109.836 344.164C91.8955 350.587 82.3079 370.444 88.4665 388.477L89.478 386.379L88.8256 386.607L90.9233 387.618C84.5009 369.678 64.6436 360.09 46.611 366.249L48.7086 367.26L48.4807 366.608L47.4691 368.706C65.4096 362.283 74.9973 342.426 68.8386 324.393L67.827 326.491L68.4795 326.263L66.3818 325.252C72.8042 343.192 92.6615 352.78 110.694 346.621L108.597 345.609L108.824 346.262C109.527 348.274 112.65 347.184 111.947 345.171L111.938 345.19Z" fill="white"/>
<path d="M110.385 345.733L110.157 345.08C92.8762 351.117 73.9789 342.004 67.9426 324.723L67.2902 324.95C73.3265 342.231 64.2133 361.129 46.9323 367.165L47.1602 367.817C64.4412 361.781 83.3385 370.894 89.3748 388.175L90.0272 387.947C83.9909 370.666 93.1041 351.769 110.385 345.733Z" fill="url(#paint5_linear_1816_792)"/>
<path d="M111.938 345.19L111.711 344.537C111.415 343.691 110.446 343.235 109.613 343.526C93.2738 349.093 75.3316 340.44 69.5146 324.188C69.2189 323.342 68.2637 322.881 67.417 323.177L66.7646 323.405C65.9179 323.7 65.4621 324.67 65.753 325.502C71.3202 341.842 62.6676 359.784 46.4157 365.601C45.569 365.896 45.1083 366.852 45.4041 367.698L45.632 368.351C45.9277 369.197 46.8968 369.653 47.7297 369.362C64.0688 363.795 82.011 372.448 87.828 388.7C88.1237 389.546 89.0789 390.007 89.9256 389.711L90.578 389.483C91.4247 389.188 91.8805 388.219 91.5896 387.386C86.0224 371.047 94.675 353.104 110.927 347.287C112.935 346.57 111.844 343.447 109.836 344.164C91.8955 350.587 82.3079 370.444 88.4665 388.477L89.478 386.379L88.8256 386.607L90.9233 387.618C84.5009 369.678 64.6436 360.09 46.611 366.249L48.7086 367.26L48.4807 366.608L47.4691 368.706C65.4096 362.283 74.9973 342.426 68.8386 324.393L67.827 326.491L68.4795 326.263L66.3818 325.252C72.8042 343.192 92.6615 352.78 110.694 346.621L108.597 345.609L108.824 346.262C109.527 348.274 112.65 347.184 111.947 345.171L111.938 345.19Z" fill="black"/>
<path d="M108.248 339.161C107.193 339.529 106.132 339.837 105.057 340.103C104.974 340.133 104.886 340.148 104.798 340.163C104.232 340.236 103.666 340.356 103.095 340.415C102.111 340.541 101.126 340.62 100.136 340.639C99.6433 340.655 99.1598 340.653 98.6623 340.655C98.5693 340.657 98.2716 340.652 98.0253 340.66C96.1644 340.593 94.2378 340.161 92.4597 339.707C92.0164 339.597 91.5814 339.422 91.129 339.331C90.9653 339.263 90.7927 339.215 90.629 339.147C89.7314 338.807 88.8517 338.429 87.9902 338.013C87.1287 337.598 86.2853 337.145 85.4599 336.655C85.2677 336.55 85.1034 336.437 84.9813 336.355C84.6761 336.15 84.366 335.931 84.0747 335.721C82.5427 334.59 80.9247 333.302 79.676 331.822C79.5859 331.698 79.4438 331.514 79.278 331.307C78.9751 330.93 78.6671 330.539 78.3731 330.144C77.7852 329.352 77.2341 328.533 76.7059 327.689C76.4488 327.265 76.2146 326.817 75.9574 326.393C75.938 326.338 75.8957 326.306 75.8763 326.25C75.8666 326.223 75.8617 326.209 75.852 326.181C75.3622 325.091 74.9001 323.991 74.4935 322.871C73.2875 319.508 69.4662 317.619 66.0655 318.807L65.4132 319.035C62.0125 320.223 60.1935 324.066 61.3488 327.463C61.7173 328.518 62.0254 329.578 62.2919 330.653C62.321 330.736 62.3361 330.824 62.3513 330.912C62.4245 331.479 62.5443 332.044 62.6036 332.615C62.7293 333.599 62.8084 334.584 62.8272 335.574C62.8436 336.067 62.8411 336.55 62.8436 337.048C62.8449 337.141 62.84 337.439 62.8482 337.685C62.7818 339.546 62.3489 341.472 61.8954 343.251C61.7855 343.694 61.6105 344.129 61.5193 344.581C61.4519 344.745 61.4031 344.917 61.3357 345.081C60.9952 345.979 60.6172 346.859 60.2017 347.72C59.7862 348.582 59.3333 349.425 58.8429 350.25C58.7387 350.443 58.6248 350.607 58.5429 350.729C58.338 351.034 58.1193 351.344 57.9095 351.636C56.7783 353.168 55.4901 354.785 54.0107 356.034C53.8865 356.124 53.7025 356.266 53.4957 356.432C53.1187 356.735 52.7278 357.043 52.3321 357.337C51.5408 357.925 50.721 358.476 49.8776 359.004C49.4535 359.261 49.0058 359.496 48.5817 359.753C48.5262 359.772 48.4943 359.815 48.4387 359.834C48.411 359.844 48.3971 359.848 48.3694 359.858C47.279 360.348 46.1788 360.81 45.0594 361.217C41.6962 362.423 39.8072 366.244 40.995 369.645L41.2229 370.297C42.4108 373.698 46.2543 375.517 49.6508 374.361C50.7058 373.993 51.7662 373.685 52.8411 373.418C52.9244 373.389 53.0126 373.374 53.1007 373.359C53.6669 373.286 54.2325 373.166 54.8036 373.107C55.7876 372.981 56.7723 372.902 57.7624 372.883C58.2551 372.867 58.7387 372.869 59.2362 372.866C59.3292 372.865 59.6268 372.87 59.8731 372.862C61.7341 372.928 63.6606 373.361 65.4387 373.815C65.882 373.925 66.317 374.1 66.7694 374.191C66.9331 374.258 67.1058 374.307 67.2695 374.374C68.1671 374.715 69.0468 375.093 69.9083 375.509C70.7698 375.924 71.6133 376.377 72.4387 376.867C72.6308 376.971 72.7952 377.085 72.9172 377.167C73.2224 377.372 73.5324 377.591 73.8237 377.801C75.3558 378.932 76.9739 380.22 78.2226 381.699C78.3127 381.824 78.4547 382.008 78.6204 382.215C78.9234 382.592 79.2313 382.982 79.5253 383.378C80.1132 384.169 80.6643 384.989 81.1925 385.833C81.4497 386.257 81.6838 386.704 81.941 387.128C81.9604 387.184 82.0027 387.216 82.0221 387.271C82.0318 387.299 82.0367 387.313 82.0464 387.341C82.5363 388.431 82.9984 389.531 83.405 390.651C84.611 394.014 88.4323 395.903 91.833 394.715L92.4853 394.487C95.886 393.299 97.7049 389.456 96.5497 386.059C96.1812 385.004 95.8731 383.944 95.6066 382.869C95.5775 382.786 95.5623 382.698 95.5471 382.609C95.4739 382.043 95.3541 381.478 95.2948 380.907C95.1692 379.923 95.09 378.938 95.0712 377.948C95.0549 377.455 95.0574 376.972 95.0549 376.474C95.0487 376.367 95.0586 376.083 95.0504 375.837C95.1168 373.976 95.5496 372.05 96.0031 370.271C96.113 369.828 96.288 369.393 96.3792 368.941C96.4466 368.777 96.4954 368.604 96.5628 368.441C96.9034 367.543 97.2813 366.663 97.6968 365.802C98.1122 364.94 98.5652 364.097 99.0556 363.271C99.1598 363.079 99.2736 362.915 99.3556 362.793C99.5604 362.488 99.7792 362.178 99.9889 361.887C101.12 360.354 102.408 358.736 103.888 357.488C104.012 357.398 104.196 357.255 104.403 357.09C104.78 356.787 105.171 356.479 105.566 356.185C106.358 355.597 107.178 355.046 108.021 354.518C108.445 354.261 108.893 354.026 109.317 353.769C109.372 353.75 109.404 353.707 109.46 353.688C109.488 353.678 109.501 353.674 109.529 353.664C110.619 353.174 111.72 352.712 112.839 352.305C116.091 351.138 118.239 347.211 116.903 343.877L116.676 343.225C115.488 339.824 111.644 338.005 108.248 339.161ZM84.9063 336.318C84.6809 336.164 84.7232 336.196 84.9063 336.318V336.318ZM58.4741 350.8C58.3193 351.025 58.3512 350.983 58.4741 350.8V350.8ZM72.9553 377.232C73.1385 377.355 73.1808 377.387 72.9553 377.232V377.232ZM99.3875 362.751C99.5105 362.567 99.5424 362.525 99.3875 362.751V362.751Z" fill="white"/>
<path d="M110.655 346.06L110.427 345.408C93.1458 351.444 74.2484 342.331 68.2121 325.05L67.5597 325.278C73.596 342.559 64.4829 361.456 47.2018 367.492L47.4297 368.145C64.7107 362.108 83.608 371.221 89.6443 388.502L90.2967 388.275C84.2604 370.994 93.3737 352.096 110.655 346.06Z" fill="url(#paint6_linear_1816_792)"/>
<path d="M112.208 345.517L111.98 344.865C111.684 344.018 110.715 343.562 109.882 343.853C93.5432 349.42 75.601 340.768 69.784 324.516C69.4883 323.669 68.5331 323.208 67.6864 323.504L67.0341 323.732C66.1874 324.028 65.7316 324.997 66.0225 325.83C71.5897 342.169 62.9371 360.111 46.6852 365.928C45.8385 366.224 45.3779 367.179 45.6736 368.026L45.9015 368.678C46.1972 369.525 47.1663 369.98 47.9992 369.69C64.3383 364.122 82.2805 372.775 88.0975 389.027C88.3932 389.874 89.3484 390.334 90.1951 390.038L90.8474 389.811C91.6941 389.515 92.1499 388.546 91.859 387.713C86.2919 371.374 94.9445 353.432 111.196 347.615C113.204 346.898 112.113 343.775 110.105 344.492C92.165 350.914 82.5773 370.771 88.7359 388.804L89.7474 386.706L89.0951 386.934L91.1928 387.946C84.7704 370.005 64.9131 360.418 46.8805 366.576L48.9781 367.588L48.7502 366.935L47.7387 369.033C65.6791 362.611 75.2668 342.753 69.1081 324.721L68.0965 326.818L68.7489 326.59L66.6513 325.579C73.0736 343.519 92.9311 353.107 110.964 346.948L108.866 345.937L109.094 346.589C109.797 348.602 112.92 347.511 112.217 345.498L112.208 345.517Z" fill="white"/>
<path d="M110.655 346.06L110.427 345.408C93.1458 351.444 74.2484 342.331 68.2121 325.05L67.5597 325.278C73.596 342.559 64.4829 361.456 47.2018 367.492L47.4297 368.145C64.7107 362.108 83.608 371.221 89.6443 388.502L90.2967 388.275C84.2604 370.994 93.3737 352.096 110.655 346.06Z" fill="url(#paint7_linear_1816_792)"/>
<path d="M112.208 345.517L111.98 344.865C111.684 344.018 110.715 343.562 109.882 343.853C93.5432 349.42 75.601 340.768 69.784 324.516C69.4883 323.669 68.5331 323.208 67.6864 323.504L67.0341 323.732C66.1874 324.028 65.7316 324.997 66.0225 325.83C71.5897 342.169 62.9371 360.111 46.6852 365.928C45.8385 366.224 45.3779 367.179 45.6736 368.026L45.9015 368.678C46.1972 369.525 47.1663 369.98 47.9992 369.69C64.3383 364.122 82.2805 372.775 88.0975 389.027C88.3932 389.874 89.3484 390.334 90.1951 390.038L90.8474 389.811C91.6941 389.515 92.1499 388.546 91.859 387.713C86.2919 371.374 94.9445 353.432 111.196 347.615C113.204 346.898 112.113 343.775 110.105 344.492C92.165 350.914 82.5773 370.771 88.7359 388.804L89.7474 386.706L89.0951 386.934L91.1928 387.946C84.7704 370.005 64.9131 360.418 46.8805 366.576L48.9781 367.588L48.7502 366.935L47.7387 369.033C65.6791 362.611 75.2668 342.753 69.1081 324.721L68.0965 326.818L68.7489 326.59L66.6513 325.579C73.0736 343.519 92.9311 353.107 110.964 346.948L108.866 345.937L109.094 346.589C109.797 348.602 112.92 347.511 112.217 345.498L112.208 345.517Z" fill="black"/>
<defs>
<linearGradient id="paint0_linear_1816_792" x1="24.0682" y1="268.923" x2="242.427" y2="201.205" gradientUnits="userSpaceOnUse">
<stop stop-color="#E2FFBE"/>
<stop offset="0.29" stop-color="#FF91FF"/>
<stop offset="0.47" stop-color="#FFA1A3"/>
<stop offset="0.67" stop-color="#9977FF"/>
<stop offset="0.86" stop-color="#A6FBFF"/>
<stop offset="0.96" stop-color="#C1FBC4"/>
</linearGradient>
<linearGradient id="paint1_linear_1816_792" x1="23.8445" y1="268.994" x2="242.185" y2="201.281" gradientUnits="userSpaceOnUse">
<stop stop-color="#E2FFBE"/>
<stop offset="0.29" stop-color="#FF91FF"/>
<stop offset="0.47" stop-color="#FFA1A3"/>
<stop offset="0.67" stop-color="#9977FF"/>
<stop offset="0.86" stop-color="#A6FBFF"/>
<stop offset="0.96" stop-color="#C1FBC4"/>
</linearGradient>
<linearGradient id="paint2_linear_1816_792" x1="309.764" y1="-66.9814" x2="210.015" y2="82.5021" gradientUnits="userSpaceOnUse">
<stop stop-color="#E2FFBE"/>
<stop offset="0.29" stop-color="#FF91FF"/>
<stop offset="0.47" stop-color="#FFA1A3"/>
<stop offset="0.67" stop-color="#9977FF"/>
<stop offset="0.86" stop-color="#A6FBFF"/>
<stop offset="0.96" stop-color="#C1FBC4"/>
</linearGradient>
<linearGradient id="paint3_linear_1816_792" x1="309.764" y1="-66.9814" x2="210.015" y2="82.5021" gradientUnits="userSpaceOnUse">
<stop stop-color="#E2FFBE"/>
<stop offset="0.29" stop-color="#FF91FF"/>
<stop offset="0.47" stop-color="#FFA1A3"/>
<stop offset="0.67" stop-color="#9977FF"/>
<stop offset="0.86" stop-color="#A6FBFF"/>
<stop offset="0.96" stop-color="#C1FBC4"/>
</linearGradient>
<linearGradient id="paint4_linear_1816_792" x1="115.41" y1="244.865" x2="69.1798" y2="385.2" gradientUnits="userSpaceOnUse">
<stop stop-color="#E2FFBE"/>
<stop offset="0.29" stop-color="#FF91FF"/>
<stop offset="0.47" stop-color="#FFA1A3"/>
<stop offset="0.67" stop-color="#9977FF"/>
<stop offset="0.86" stop-color="#A6FBFF"/>
<stop offset="0.96" stop-color="#C1FBC4"/>
</linearGradient>
<linearGradient id="paint5_linear_1816_792" x1="115.41" y1="244.865" x2="69.1798" y2="385.2" gradientUnits="userSpaceOnUse">
<stop stop-color="#E2FFBE"/>
<stop offset="0.29" stop-color="#FF91FF"/>
<stop offset="0.47" stop-color="#FFA1A3"/>
<stop offset="0.67" stop-color="#9977FF"/>
<stop offset="0.86" stop-color="#A6FBFF"/>
<stop offset="0.96" stop-color="#C1FBC4"/>
</linearGradient>
<linearGradient id="paint6_linear_1816_792" x1="115.68" y1="245.192" x2="69.4493" y2="385.527" gradientUnits="userSpaceOnUse">
<stop stop-color="#E2FFBE"/>
<stop offset="0.29" stop-color="#FF91FF"/>
<stop offset="0.47" stop-color="#FFA1A3"/>
<stop offset="0.67" stop-color="#9977FF"/>
<stop offset="0.86" stop-color="#A6FBFF"/>
<stop offset="0.96" stop-color="#C1FBC4"/>
</linearGradient>
<linearGradient id="paint7_linear_1816_792" x1="84.4624" y1="346.425" x2="57.1041" y2="397.58" gradientUnits="userSpaceOnUse">
<stop stop-color="#E2FFBE"/>
<stop offset="0.29" stop-color="#FF91FF"/>
<stop offset="0.47" stop-color="#FFA1A3"/>
<stop offset="0.67" stop-color="#9977FF"/>
<stop offset="0.86" stop-color="#A6FBFF"/>
<stop offset="0.96" stop-color="#C1FBC4"/>
</linearGradient>
</defs>
</svg>
