<svg width="69" height="65" viewBox="0 0 69 65" fill="none" xmlns="http://www.w3.org/2000/svg">
<path d="M4.30216 19.8542C4.52466 18.144 5.67175 17.1294 5.95562 16.8497C7.05572 15.7594 8.15921 14.6714 9.25916 13.5868C11.4974 11.3745 13.7058 9.21641 15.9079 7.01619L15.9084 7.01535C16.3484 6.576 17.058 5.81854 17.7495 5.21303L17.75 5.21219C18.4397 4.60765 19.539 3.94717 20.9772 3.95858L20.9781 3.95689C22.6334 3.96593 24.0045 4.8884 24.7456 6.14441C25.0332 6.63147 25.2391 7.11853 25.3819 7.47591C25.5592 7.91983 25.6142 8.08474 25.7277 8.34764C26.3462 9.77578 26.9639 11.2028 27.5821 12.6298C28.2007 14.0576 28.819 15.4857 29.4381 16.9151C29.7494 17.6335 30.0621 18.353 30.3735 19.0722C30.5839 19.558 30.794 20.044 31.0041 20.529C31.7584 19.7852 32.5054 19.049 33.2828 18.2813C34.2725 17.3039 35.2484 16.3443 36.2332 15.3704L36.2337 15.3695C36.3547 15.2497 36.4296 15.1635 36.6736 14.9063C36.8694 14.6999 37.1525 14.4096 37.4902 14.1306C38.1546 13.5816 39.3701 12.7981 41.0291 12.96L41.0292 12.9657C41.1047 12.9734 41.1813 12.9828 41.2588 12.9957L41.4578 13.0339L41.4655 13.0361C43.1914 13.4238 44.134 14.6055 44.6115 15.5832C44.9683 16.3137 45.2299 17.3703 45.2637 17.4809C45.6807 18.8433 46.0798 20.1517 46.4966 21.5136L46.4976 21.5176C46.9215 22.9088 47.3477 24.2996 47.7735 25.6924C48.1991 27.0843 48.624 28.4782 49.0487 29.8724C49.802 32.3414 50.5573 34.8101 51.3123 37.2798C52.0673 39.7494 52.8232 42.2202 53.577 44.6912L53.5757 44.6916C54.3297 47.1541 55.0493 49.5634 55.8121 51.9762C56.1236 52.9583 56.6396 54.3859 56.9446 55.7412L56.946 55.7408C57.3469 57.5168 56.7688 60.226 54.0481 61.1448L54.0454 61.1455C52.4858 61.6706 51.1003 61.2604 50.1181 60.5808C49.3401 60.0425 48.7618 59.2832 48.5642 59.0398L48.5609 59.0356C48.1612 58.5413 47.7641 58.0458 47.3709 57.5558C46.9765 57.0645 46.5859 56.5783 46.1942 56.0939L46.1889 56.0875C44.5806 54.088 42.9701 52.0918 41.358 50.0936C40.5495 49.0927 39.7424 48.0918 38.9366 47.0921C38.1301 46.0916 37.3248 45.092 36.5182 44.0935C36.1154 43.5964 35.7133 43.0986 35.3119 42.6009C35.1713 42.7395 35.0313 42.8781 34.8914 43.0166L34.8863 43.0216C33.6153 44.2746 32.3977 45.4502 31.1856 46.6754L31.1865 46.6759C30.6463 47.224 30.0021 47.8973 29.3451 48.5176L29.3443 48.5171C29.0494 48.8046 27.873 50.0512 26.029 50.1596L26.0212 50.1596L26.0137 50.1609C24.3648 50.2491 23.0161 49.4463 22.1921 48.3425L22.1856 48.3342C21.6572 47.6209 21.0849 46.709 20.7352 46.1921L20.734 46.1903C18.9943 43.6137 17.2539 41.0377 15.5132 38.4614C13.7727 35.8853 12.0316 33.3083 10.2913 30.7307C8.56893 28.1797 6.93629 25.6989 5.22286 23.2263L5.21769 23.2177L5.21119 23.2094C4.85494 22.6879 4.09797 21.4897 4.3004 19.869L4.30216 19.8542ZM11.5847 20.8518C11.96 21.4071 12.3493 21.9802 12.7303 22.5472L12.7316 22.5469C13.5366 23.7377 14.3409 24.9277 15.1446 26.1175C15.9484 27.3074 16.7516 28.4973 17.5559 29.6871L17.5563 29.6884C20.412 33.9182 23.2812 38.159 26.141 42.3974C26.8594 41.6746 27.5789 40.9527 28.3628 40.1799C28.8785 39.6716 29.3939 39.1622 29.9106 38.6514L31.464 37.1171L31.4686 37.113C32.0171 36.5744 32.3188 36.3087 32.6471 35.9429C32.6488 35.9409 32.6513 35.9383 32.6537 35.9354C32.6813 35.9025 32.6759 35.9076 32.7216 35.8529C32.7553 35.8126 32.8084 35.7509 32.8735 35.6778L34.6221 31.5983L36.8421 34.4914C37.2255 34.6244 37.7017 34.874 38.1174 35.3315C38.3944 35.6365 38.5873 35.9731 38.7145 36.3088C38.7842 36.3879 38.8824 36.4986 38.9811 36.6206L38.9797 36.621C39.4012 37.1379 39.8202 37.6586 40.2264 38.1628C41.0368 39.1629 41.8448 40.166 42.6495 41.1652L42.6481 41.1656C44.2317 43.1296 45.8119 45.0913 47.3957 47.0538C47.0391 45.9146 46.6808 44.7629 46.3221 43.5912C44.9491 39.1072 43.5783 34.6197 42.2078 30.1334C41.5263 27.9043 40.8435 25.6695 40.1606 23.435L40.1597 23.4345C39.9883 22.8731 39.8176 22.3114 39.6461 21.7499C39.6105 21.6332 39.5737 21.5167 39.5381 21.4C38.8526 22.0784 38.1677 22.7565 37.4837 23.431L37.4818 23.4322C36.2882 24.6073 34.9607 25.9957 33.5966 27.3257L34.4375 30.4611L30.7503 29.4588C29.6032 29.7637 28.2929 29.4869 27.4415 28.5588L23.6132 27.5179L25.9054 25.4324C25.7714 25.1227 25.6375 24.8125 25.5019 24.5004C25.3392 24.1258 25.1745 23.748 25.0107 23.3688C24.6845 22.6177 24.36 21.8666 24.0367 21.1184C23.7121 20.3673 23.3888 19.6185 23.0642 18.8711L23.0626 18.8679C22.4318 17.4109 21.8002 15.9532 21.1681 14.495C20.8275 13.7092 20.486 12.9235 20.1454 12.1375C19.553 12.7257 18.9635 13.3121 18.3353 13.9329L18.333 13.935C17.3039 14.9498 16.2758 15.9654 15.2467 16.9817C14.2181 17.9975 13.1878 19.0136 12.1573 20.0299C11.9315 20.2529 11.7056 20.4771 11.4787 20.7015C11.5148 20.7534 11.5518 20.803 11.5847 20.8518Z" fill="black" stroke="white" stroke-width="6"/>
<path d="M8.22048 19.9741C8.22217 19.9697 8.22849 19.9563 8.24717 19.9377L8.26725 19.9166L8.28515 19.8953C8.28515 19.8953 8.2856 19.8936 8.2871 19.8919C8.28862 19.8903 8.29136 19.888 8.29452 19.885C8.30157 19.8782 8.31132 19.8698 8.32638 19.8571L8.34207 19.8436L8.3574 19.8288L9.90302 18.3001C12.5671 15.6738 15.2331 13.0433 17.8938 10.4148L17.8946 10.4153C18.7085 9.61428 19.4777 8.8205 20.2897 8.05211L20.2902 8.05127C20.4896 7.86224 20.7431 7.7646 20.9591 7.76765C21.1545 7.77042 21.3353 7.85318 21.4668 8.0777C21.4976 8.13074 21.5285 8.19756 21.5645 8.28745C21.5953 8.36432 21.6405 8.48752 21.6831 8.58595L21.6839 8.58644C22.3297 10.0762 22.9741 11.5657 23.619 13.055C24.264 14.5444 24.9091 16.0341 25.555 17.5241C26.7997 20.3962 28.0461 23.2744 29.2924 26.1523L29.2959 26.1599C29.3126 26.1966 29.3309 26.2326 29.3446 26.2591C29.3601 26.2889 29.3713 26.3098 29.3819 26.3313C29.3919 26.3518 29.3979 26.3656 29.4012 26.3741L29.5557 27.2177L30.0029 26.8376C30.178 26.8066 30.2908 26.6872 30.3396 26.608C30.3634 26.5694 30.3781 26.5317 30.3885 26.4998C30.5693 26.3269 30.7451 26.1361 30.8696 26.0142L30.8715 26.013C31.466 25.4267 32.0609 24.8394 32.6559 24.2523C33.2511 23.665 33.8462 23.0771 34.4408 22.4908L34.4417 22.4913C35.1155 21.8252 35.7899 21.1588 36.4648 20.493C37.1391 19.8278 37.8134 19.1622 38.487 18.4963L38.4878 18.4968C38.7019 18.287 38.9151 18.0752 39.1278 17.8649C39.3406 17.6545 39.5531 17.4454 39.7653 17.2373C40.1648 16.8457 40.3566 16.6989 40.6587 16.7484L40.8203 16.7752C40.9675 16.8329 41.0626 16.9356 41.146 17.0861C41.2788 17.3259 41.3442 17.6103 41.4608 17.994L41.4615 17.9967L42.2766 20.6572L45.1235 29.9801C46.2937 33.8198 47.4693 37.659 48.6413 41.4945C49.1566 43.1818 49.6725 44.8689 50.1877 46.5562C50.7029 48.2433 51.2182 49.9304 51.7333 51.6174C52.1816 53.0913 52.6608 54.523 53.0795 55.9772L53.255 56.6028C53.3746 57.042 53.2032 57.396 52.8528 57.5242C52.561 57.6306 52.2723 57.5313 52.0068 57.2083L52.0059 57.2078C51.4281 56.5054 50.8698 55.7975 50.2933 55.0823C49.1491 53.6628 48.0036 52.2426 46.8585 50.8226L43.4242 46.5619C41.2973 43.9305 39.1754 41.2976 37.0537 38.6643C36.7961 38.3405 36.5399 38.0223 36.2806 37.7026C36.2751 37.6943 36.2684 37.6826 36.2595 37.669C36.2368 37.6344 36.2072 37.5887 36.1778 37.5429C36.1486 37.4975 36.1196 37.4528 36.0981 37.4191C36.0874 37.4022 36.0784 37.3879 36.0722 37.3782C36.0691 37.3734 36.0666 37.3698 36.0649 37.3672C36.0641 37.366 36.0638 37.3647 36.0634 37.3641L36.063 37.3627L35.9259 37.1471L35.6709 37.1318C35.5269 37.1232 35.4201 37.179 35.3965 37.191C35.355 37.2121 35.3211 37.2351 35.3002 37.2504C35.257 37.2821 35.2155 37.3184 35.1822 37.3492C35.1131 37.4134 35.0346 37.4946 34.9633 37.5702C34.8905 37.6473 34.8184 37.7268 34.7612 37.7895C34.732 37.8214 34.7075 37.8484 34.6876 37.87C34.6779 37.8805 34.6699 37.8892 34.6638 37.8956C34.6617 37.8978 34.6599 37.8993 34.6587 37.9006L34.6592 37.8997C34.1357 38.4109 33.6141 38.9278 33.0938 39.443L33.0943 39.4421C31.6984 40.8171 30.3014 42.2007 28.9045 43.5781L28.904 43.5789C28.0182 44.4537 27.219 45.3262 26.3274 46.1238L26.3246 46.1267C25.9584 46.4583 25.5054 46.4083 25.2871 46.0994L25.2863 46.0989C25.1604 45.9216 25.0624 45.7649 24.9226 45.5608L24.9213 45.5612C24.6227 45.1189 24.3254 44.6771 24.0273 44.2365L23.1308 42.9104C21.0804 39.8816 19.0352 36.8513 16.9865 33.8184L10.7478 24.585L10.7469 24.5845C10.4218 24.1054 10.0978 23.6254 9.77365 23.1453C9.4497 22.6655 9.1258 22.1848 8.80001 21.7047L8.79711 21.7019C8.66739 21.5137 8.48585 21.2203 8.31974 20.9956L8.3184 20.9959C8.17723 20.8035 8.10613 20.6375 8.08552 20.495C8.0664 20.3627 8.0865 20.218 8.18649 20.0447L8.20651 20.0101L8.22048 19.9741ZM36.2847 37.7072C36.2871 37.7105 36.2882 37.7133 36.2887 37.714C36.2882 37.7134 36.287 37.7114 36.2851 37.7086C36.2842 37.7072 36.2829 37.706 36.2818 37.7044C36.2831 37.7061 36.2844 37.7068 36.2847 37.7072ZM29.4877 26.0835C29.5125 26.0434 29.5545 25.9923 29.6123 25.9479L29.8918 26.2762L29.9422 26.267L29.9139 26.3025L29.9025 26.3162L29.4207 26.4203C29.4141 26.3807 29.4108 26.3304 29.4191 26.2728C29.4229 26.246 29.4357 26.168 29.4877 26.0835Z" fill="url(#paint0_linear_1814_763)" stroke="black"/>
<path d="M30.0652 26.2411C30.0748 26.2511 30.0831 26.2597 30.089 26.2683L29.7542 26.4145C29.7445 26.4043 29.7355 26.3955 29.7296 26.3867M30.0652 26.2411L29.7296 26.3867M30.0652 26.2411C30.0636 26.2394 30.062 26.2377 30.0603 26.236M30.0652 26.2411L29.7296 26.3867M29.7296 26.3867C29.7268 26.3825 29.7255 26.3778 29.7234 26.3741C29.7219 26.3695 29.7214 26.3648 29.7203 26.3599M30.0603 26.236L29.7203 26.3599M30.0603 26.236C30.0565 26.2323 30.0539 26.2268 30.0497 26.2231C30.0472 26.221 30.0437 26.2202 30.0412 26.2182L29.7208 26.3591L29.7203 26.3599M30.0603 26.236L29.7203 26.3599M30.106 26.3266C30.1068 26.3524 30.1041 26.3793 30.0939 26.4042C30.0787 26.4412 30.0561 26.4623 30.0355 26.4742C30.0165 26.4851 29.9637 26.5076 29.8858 26.4893C29.8515 26.4812 29.8187 26.4652 29.7892 26.4437L30.106 26.3266ZM30.1005 26.2952L29.7796 26.437C29.7771 26.435 29.774 26.4333 29.7716 26.4313C29.7674 26.4276 29.7637 26.4237 29.76 26.4201L30.1005 26.2952ZM29.7273 26.2501C29.7426 26.213 29.7659 26.1925 29.7866 26.1806C29.8056 26.1697 29.8577 26.1468 29.9355 26.165C29.9697 26.1731 30.0021 26.19 30.0315 26.2115L29.7139 26.328C29.7131 26.3023 29.7171 26.2751 29.7273 26.2501Z" fill="black" stroke="black"/>
<defs>
<linearGradient id="paint0_linear_1814_763" x1="24.1903" y1="17.2877" x2="37.6461" y2="61.4108" gradientUnits="userSpaceOnUse">
<stop stop-color="#E2FFBE"/>
<stop offset="0.29" stop-color="#FF91FF"/>
<stop offset="0.47" stop-color="#FFA1A3"/>
<stop offset="0.67" stop-color="#9977FF"/>
<stop offset="0.86" stop-color="#A6FBFF"/>
<stop offset="0.96" stop-color="#C1FBC4"/>
</linearGradient>
</defs>
</svg>
