<svg width="124" height="241" viewBox="0 0 124 241" fill="none" xmlns="http://www.w3.org/2000/svg">
<path d="M59.752 3.84375C62.8115 2.57109 65.5895 3.42305 67.4189 3.9248L76.0361 6.28516C78.907 7.07409 81.7773 7.86486 84.6465 8.65527H84.6475C96.2647 11.8409 107.796 15.0741 119.396 18.1875L119.397 18.1885C122.176 18.9353 125.424 19.6741 128.425 20.6963L128.822 20.8389C130.811 21.5858 132.867 22.9111 134.146 25.1826C135.681 27.8748 135.509 31.013 134.088 33.5244C133.348 34.8351 132.447 36.0426 131.603 37.1152C130.699 38.2621 129.952 39.147 129.219 40.1318C122.155 49.6487 114.853 59.4911 107.789 69.0088C105.994 71.4291 104.195 73.8545 102.396 76.2783C100.596 78.7021 98.7977 81.1255 97.0029 83.5449L97 83.5479C96.0611 84.8103 95.1258 86.0732 94.1885 87.3389C93.2521 88.6032 92.3129 89.87 91.3701 91.1377L91.3711 91.1387C91.3321 91.1911 91.295 91.2446 91.2568 91.2969C94.1653 92.0778 97.1249 92.8109 100.245 93.6699C105.245 95.0466 110.114 96.3905 115.237 97.7979C120.373 99.2086 125.498 100.627 130.641 102.035H130.64C131.436 102.253 132.24 102.423 133.288 102.675C134.268 102.91 135.373 103.197 136.455 103.601C138.606 104.402 141.072 105.812 142.37 108.671L142.349 108.685C142.356 108.701 142.362 108.719 142.369 108.735C142.414 108.833 142.457 108.934 142.496 109.038L142.579 109.278L142.582 109.286H142.581C143.6 112.549 142.618 115.271 141.216 117.353C140.123 118.975 138.497 120.555 137.408 121.676L136.978 122.127C135.135 124.104 133.289 126.085 131.442 128.066C129.596 130.047 127.749 132.028 125.906 134.005L125.903 134.008C122.077 138.103 118.254 142.202 114.431 146.303C110.608 150.403 106.783 154.503 102.954 158.601L102.955 158.602L62.2598 202.221L62.2607 202.222C55.5517 209.422 48.8236 216.542 42.209 223.772L42.21 223.773C39.1731 227.099 35.9228 230.989 32.3486 234.284C29.3249 237.076 24.2085 238.409 20.2031 234.885L20.2012 234.883C17.8309 232.794 17.1947 230.221 17.3916 227.814C17.5683 225.655 18.4343 223.511 19.0029 222.023L19.0049 222.018C19.877 219.75 20.7573 217.487 21.6348 215.23C22.5129 212.972 23.3892 210.719 24.2568 208.463L24.2588 208.456C27.8323 199.238 31.3904 190.018 34.9492 180.797C36.729 176.177 38.5129 171.562 40.2959 166.948L45.6406 153.104C47.4134 148.482 49.2018 143.861 50.9883 139.244L50.9922 139.235L51.6924 137.409C51.1227 137.253 50.5733 137.095 50.0625 136.951V136.95C48.4443 136.508 46.8305 136.063 45.2217 135.618C43.6037 135.171 41.9904 134.726 40.374 134.284L40.3672 134.282C33.8443 132.484 27.4265 130.648 20.9336 128.946V128.945C17.8957 128.155 14.6859 127.373 11.5508 126.436V126.435C9.62473 125.875 6.36099 125.033 4.38477 122.032L4.38086 122.025L4.37598 122.019C2.66727 119.394 2.65284 116.42 3.77051 113.819L3.77441 113.81C5.05288 110.864 6.68121 107.841 7.97266 105.184L7.97363 105.182C13.2166 94.4189 18.4561 83.6559 23.6953 72.8926C28.9345 62.1294 34.1736 51.3652 39.417 40.6016C44.5469 30.0717 49.7547 19.6899 54.7275 9.16016L54.7314 9.15039L54.7363 9.1416C55.5835 7.37827 56.9563 5.0233 59.7373 3.84961L59.7441 3.84668L59.752 3.84375ZM63.0205 11.6367C62.9027 11.65 62.8732 11.6722 62.8691 11.6748C62.8633 11.6785 62.7629 11.739 62.6064 11.9883L62.5996 11.999C62.0534 12.8612 61.5666 13.8412 61.0586 14.9492C60.5842 15.9838 60.0277 17.276 59.4727 18.4111L59.4736 18.4121C58.3244 20.7736 57.179 23.1452 56.0225 25.5059L56.0215 25.5049C53.6025 30.4773 51.1844 35.4462 48.7656 40.4141C46.3456 45.3845 43.9255 50.3543 41.5059 55.3281L41.5049 55.3291C31.8922 75.0603 22.2875 94.8363 12.6562 114.573L12.6572 114.574C12.5115 114.875 12.3551 115.181 12.2197 115.447C12.0781 115.726 11.9519 115.976 11.8369 116.219C11.6005 116.719 11.4682 117.073 11.4072 117.338C11.3861 117.43 11.378 117.493 11.375 117.532C11.3954 117.554 11.4264 117.584 11.4717 117.622L11.6191 117.733C12.0013 117.995 12.655 118.275 13.6826 118.555C14.2358 118.705 14.8149 118.836 15.4375 118.974C16.029 119.104 16.6956 119.249 17.3047 119.411H17.3057C22.4402 120.77 27.3294 122.056 32.7412 123.548C35.4355 124.291 38.1302 125.029 40.8271 125.769L48.9219 127.992L48.9268 127.993C51.3525 128.667 53.4191 129.333 55.6201 129.798C55.8196 129.839 56.0219 129.872 56.3623 129.932C56.6662 129.985 57.0566 130.056 57.4609 130.158C57.6622 130.209 57.8922 130.273 58.1396 130.358L62.1875 129.876L61.0928 132.518C61.1058 132.534 61.12 132.551 61.1328 132.568C61.3357 132.839 61.7453 133.423 61.9033 134.219C61.9919 134.665 62.0162 135.253 61.8125 135.889C61.603 136.543 61.2139 137.054 60.7793 137.416C60.6801 137.499 60.5788 137.573 60.4775 137.64C60.3741 137.87 60.2655 138.138 60.1514 138.454C59.981 138.926 59.5969 140.116 59.3389 140.787L59.3379 140.786C58.4336 143.166 57.5131 145.534 56.6006 147.894C54.8285 152.514 53.0397 157.132 51.2539 161.747C47.599 171.209 43.9315 180.677 40.2783 190.15L40.2793 190.151C37.0533 198.533 33.8061 206.912 30.583 215.27C28.9252 219.58 27.2213 223.404 25.8535 227.507L25.8516 227.514C25.7628 227.778 25.7183 228.043 25.7148 228.274C25.7119 228.476 25.7412 228.61 25.7646 228.684C25.7899 228.689 25.8232 228.695 25.8662 228.7C25.874 228.701 25.8789 228.705 25.915 228.691C25.9742 228.67 26.103 228.608 26.3125 228.445C26.5245 228.281 26.7617 228.058 27.0547 227.755C27.1996 227.605 27.3449 227.449 27.5059 227.276C27.6604 227.11 27.8364 226.921 28.0117 226.739L28.0156 226.735C40.3942 213.93 52.1032 200.85 64.4658 187.582C76.7717 174.375 89.0932 161.167 101.414 147.96C107.535 141.396 113.673 134.817 119.81 128.237V128.236C122.894 124.931 125.978 121.625 129.062 118.319L129.069 118.312C130.549 116.736 131.938 115.256 133.419 113.679L133.426 113.671C134.105 112.952 134.41 112.546 134.549 112.244C134.6 112.134 134.61 112.069 134.613 112.03C134.499 111.918 134.329 111.806 134.046 111.683C133.759 111.557 133.402 111.441 132.926 111.311C132.689 111.246 132.448 111.183 132.175 111.113C131.911 111.045 131.617 110.97 131.322 110.888V110.887C130.214 110.58 129.105 110.279 127.99 109.975C126.876 109.67 125.756 109.365 124.636 109.055V109.054C119.984 107.788 115.334 106.507 110.688 105.228L110.687 105.227C102.517 102.969 93.8448 100.929 85.4834 98.3828L83.582 100.285L82.8623 97.5596C80.331 96.6315 78.9836 93.2474 81.0957 90.8682L80.332 87.9766L82.8506 88.7803C83.0518 88.5041 83.2571 88.2137 83.4668 87.9092C84.1682 86.8904 85.0296 85.5559 85.8418 84.4619L85.8438 84.459C86.7826 83.1966 87.7179 81.9336 88.6553 80.668C89.5921 79.4031 90.5315 78.1353 91.4746 76.8672C93.3494 74.3358 95.2278 71.8087 97.1045 69.2842C98.983 66.7571 100.86 64.2323 102.732 61.7041L102.734 61.7012C106.38 56.7908 110.025 51.8759 113.671 46.9609C117.316 42.0462 120.962 37.1311 124.608 32.2197C124.822 31.9315 125.047 31.6467 125.249 31.3926C125.461 31.1253 125.649 30.8911 125.833 30.6514C126.207 30.164 126.453 29.7942 126.604 29.4902C126.668 29.3598 126.699 29.2703 126.715 29.2168C126.703 29.1991 126.689 29.1745 126.666 29.1465V29.1455C126.528 28.9756 126.108 28.6659 125.028 28.334C124.531 28.181 123.992 28.0511 123.393 27.9141C122.834 27.7863 122.156 27.6384 121.557 27.4736H121.556C116.178 25.9939 110.905 24.5786 105.488 23.0928L105.485 23.0918C100.117 21.6133 94.7479 20.139 89.3779 18.6641C84.0089 17.1894 78.6389 15.7134 73.2686 14.2344V14.2354C71.9175 13.864 70.5615 13.4928 69.2051 13.1211C67.8491 12.7495 66.4921 12.3769 65.1387 12.0049L65.1309 12.0029C64.5907 11.8529 64.1548 11.7454 63.7754 11.6836C63.3977 11.6221 63.1615 11.6209 63.0205 11.6367Z" fill="black" stroke="white" stroke-width="6"/>
<path d="M63.3857 7.83447C63.6128 7.79862 63.8741 7.80902 64.1572 7.88623L64.1846 7.89404L64.2129 7.89795C64.3678 7.92179 64.5197 7.97072 64.6875 8.03174L64.707 8.03955L64.7275 8.04541C66.0712 8.40898 67.4188 8.77647 68.7666 9.146L72.8076 10.2583C86.6947 14.0859 100.598 17.9142 114.485 21.7261V21.7251C118.677 22.8841 122.862 23.9393 127.001 25.1714H127.002C128.331 25.5658 129.467 26.4387 130.074 27.5259C130.634 28.5283 130.756 29.7263 130.146 30.9653L130.016 31.2134C129.845 31.5126 129.626 31.8095 129.383 32.1187C129.266 32.2675 129.139 32.4246 129.012 32.5835L128.641 33.061C124.916 38.0827 121.191 43.1008 117.466 48.1187C113.741 53.1364 110.017 58.1545 106.292 63.1763C99.1114 72.8559 91.9143 82.5511 84.7178 92.2466L84.7119 92.2544C84.5932 92.4207 84.4362 92.6771 84.3301 92.8354C84.2019 93.0268 84.0908 93.1682 83.9883 93.2554L83.3301 93.8149L83.627 93.9214C83.6333 93.9605 83.6457 94.0022 83.665 94.0454C83.7709 94.2821 83.9931 94.3399 84.1104 94.3433C84.2115 94.3462 84.288 94.3175 84.3164 94.3062C84.3763 94.2822 84.4256 94.2482 84.4658 94.2153C85.4584 94.5394 86.5345 94.7626 87.4521 95.019L87.4541 95.02C90.5541 95.8741 93.6579 96.7285 96.7617 97.5825L106.07 100.144C109.589 101.109 113.109 102.078 116.628 103.046C120.146 104.015 123.665 104.983 127.184 105.948V105.949C128.292 106.257 129.405 106.562 130.516 106.867C131.627 107.171 132.737 107.476 133.843 107.784C135.81 108.332 137.438 108.822 138.144 110.689L138.266 111.012H138.314C138.681 112.236 138.416 113.253 137.845 114.205C137.199 115.28 136.2 116.216 135.241 117.241L135.239 117.243C134.022 118.555 132.805 119.864 131.587 121.17L127.933 125.086C123.662 129.657 119.395 134.232 115.129 138.807C110.862 143.382 106.596 147.957 102.326 152.528C91.7764 163.821 81.2425 175.131 70.709 186.423L42.9033 216.221C38.3168 221.125 33.8925 226.165 29.1846 230.92C27.5524 232.567 25.2039 232.946 23.4072 231.442H23.4062C21.8695 230.153 21.7186 228.273 22.416 226.418V226.417C23.6486 223.131 24.9422 219.881 26.21 216.601C28.7406 210.053 31.2711 203.501 33.8018 196.949C36.3325 190.397 38.8639 183.844 41.3945 177.296V177.295C46.0757 165.134 50.7726 152.988 55.4697 140.842C56.0556 139.354 56.6255 137.881 57.1953 136.393L57.1992 136.383L57.2031 136.373C57.194 136.4 57.1896 136.403 57.2207 136.339C57.2429 136.294 57.2742 136.232 57.3115 136.158C57.3861 136.01 57.4834 135.821 57.5801 135.633C57.6766 135.446 57.7722 135.261 57.8438 135.124C57.8793 135.055 57.909 134.998 57.9297 134.958C57.9401 134.939 57.9486 134.922 57.9541 134.912C57.9568 134.906 57.9595 134.903 57.9609 134.9C57.9615 134.899 57.9616 134.898 57.9619 134.897L57.9629 134.896L58.0811 134.669L57.9668 134.441C57.8964 134.3 57.7816 134.222 57.7393 134.195C57.6801 134.156 57.6161 134.125 57.5596 134.1C57.445 134.05 57.3036 134.001 57.1553 133.956C56.8551 133.863 56.471 133.765 56.0889 133.674C55.2917 133.485 54.5448 133.334 54.3428 133.28C51.6382 132.521 48.9183 131.777 46.2002 131.035H46.2012C38.9264 129.026 31.6318 127.033 24.3428 125.025L24.3418 125.024C19.8162 123.781 15.2419 122.765 10.8271 121.315L10.8232 121.314L10.6016 121.237C8.33454 120.393 7.02973 118.073 8.05664 115.846V115.845C8.40481 115.086 8.783 114.36 9.15918 113.575C10.0602 111.725 10.9584 109.88 11.8555 108.035L14.5527 102.491C20.7052 89.822 26.8734 77.1689 33.042 64.4995C36.1737 58.07 39.302 51.6408 42.4297 45.2114C45.5575 38.782 48.6848 32.3517 51.8164 25.9224V25.9214C52.7888 23.9134 53.7655 21.9095 54.7422 19.9048C55.7188 17.9001 56.6959 15.8946 57.6689 13.8853L57.6709 13.8823C58.1086 12.9616 58.6562 11.9544 59.084 10.9722C59.5138 9.99219 60.0524 9.21226 60.7305 8.67822C61.4004 8.1506 62.2353 7.84139 63.3076 7.84131H63.3477L63.3857 7.83447ZM84.1387 93.3433C84.2022 93.3451 84.2986 93.3641 84.3896 93.4204L84.3125 93.6362L84.4395 93.7856L84.2686 93.7573L84.2021 93.7466L83.8906 93.4028C83.9066 93.3938 83.9251 93.3855 83.9453 93.3774C83.9687 93.3681 84.0408 93.3405 84.1387 93.3433Z" fill="url(#paint0_linear_1814_756)" stroke="black"/>
<path d="M83.5938 93.4438C83.8567 93.0886 84.2937 93.0565 84.6445 93.2603C84.8159 93.3598 84.9189 93.4927 84.9551 93.6128C84.9855 93.714 84.9845 93.8565 84.8457 94.0483L84.7852 94.1226L84.7754 94.1333L84.7666 94.145C84.5036 94.5003 84.0657 94.5323 83.7148 94.3286C83.5438 94.2291 83.4414 94.096 83.4053 93.9761C83.3751 93.8758 83.3737 93.7338 83.5088 93.5444L83.5752 93.4663L83.585 93.4546L83.5938 93.4438Z" fill="black" stroke="black"/>
<path d="M64.7998 16.0371C64.7213 16.3965 64.7437 16.7924 64.9102 17.1484C64.988 17.3149 65.0965 17.4648 65.2305 17.5957C65.18 17.649 65.1311 17.7043 65.084 17.7607C64.7374 18.1761 64.4178 18.7336 64.1416 19.2881C63.8626 19.8481 63.6144 20.4332 63.415 20.917C63.2079 21.4196 63.0674 21.7763 62.9873 21.9365L62.9854 21.9404C60.7711 26.4637 58.5532 30.9872 56.335 35.5107C54.1168 40.0342 51.899 44.5583 49.6846 49.082C46.727 55.1158 43.7653 61.1536 40.8037 67.1914C37.8421 73.2294 34.8796 79.2677 31.9219 85.3018C27.7148 93.8583 23.5229 102.433 19.3164 111.004L19.3145 111.009C19.166 111.321 18.9248 111.685 18.6553 112.156C18.4286 112.553 18.1813 113.032 18.0996 113.486C18.0861 113.507 18.0716 113.529 18.0459 113.569C18.0211 113.608 17.9809 113.671 17.9502 113.737C17.9351 113.77 17.9122 113.824 17.8984 113.891C17.8879 113.942 17.8708 114.066 17.9277 114.207L17.9248 114.209C17.9277 114.216 17.9324 114.223 17.9355 114.229C17.9381 114.235 17.9396 114.242 17.9424 114.247L17.9443 114.245C18.0049 114.367 18.0946 114.432 18.1172 114.448C18.1589 114.478 18.1994 114.498 18.2256 114.51C18.2798 114.535 18.3394 114.556 18.3896 114.572C18.4935 114.606 18.6216 114.64 18.7422 114.67L19.2891 114.803L19.3008 114.806L31.5586 118.175C37.2365 119.733 42.9185 121.295 48.6006 122.856C54.2827 124.418 59.9653 125.98 65.6436 127.538L65.6455 127.539C66.1846 127.685 66.6779 127.785 67.1885 127.949C67.6205 128.088 68.0008 128.256 68.3105 128.486L68.4385 128.59C68.9343 129.029 69.1333 129.512 69.168 130.022C69.204 130.554 69.063 131.141 68.8223 131.759C67.6526 134.699 66.3947 137.574 65.1865 140.499C62.8142 146.224 60.4388 151.946 58.0625 157.667C55.6862 163.388 53.3091 169.11 50.9365 174.836C48.7697 180.055 46.5996 185.279 44.4287 190.502C42.2579 195.725 40.0867 200.949 37.9199 206.168L36.3721 209.881C36.3573 209.915 36.3317 209.965 36.292 210.041C36.2557 210.11 36.2082 210.198 36.165 210.285C36.1219 210.372 36.0762 210.473 36.04 210.575C36.0079 210.666 35.9726 210.79 35.9688 210.924H35.9678C35.9566 211.159 36.0021 211.498 36.1865 211.781C36.2839 211.931 36.4283 212.076 36.6299 212.165C36.8333 212.255 37.0581 212.273 37.2881 212.229L37.293 212.229C37.4178 212.204 37.5161 212.145 37.5771 212.103C37.6436 212.057 37.7043 212.004 37.7559 211.954C37.8589 211.855 37.9614 211.734 38.0498 211.624C38.1395 211.512 38.2259 211.396 38.2949 211.305C38.3712 211.204 38.4132 211.148 38.4336 211.125L38.4346 211.126L40.5859 208.77V208.769C43.6939 205.352 46.7984 201.94 49.9023 198.527C53.0061 195.115 56.1091 191.702 59.2168 188.286L59.2178 188.287C63.7177 183.344 68.2142 178.401 72.71 173.458C77.2056 168.515 81.7016 163.573 86.2012 158.631C90.3847 154.036 94.5675 149.437 98.751 144.838C102.935 140.239 107.118 135.641 111.302 131.046L120.096 121.383L120.098 121.381C120.835 120.565 121.63 119.774 122.431 118.938C123.223 118.109 124.008 117.247 124.684 116.327C124.774 116.207 124.88 116.072 124.96 115.942C125.041 115.812 125.134 115.631 125.149 115.416C125.187 114.903 124.792 114.583 124.399 114.362C123.837 114.037 123.136 113.852 122.485 113.711C121.796 113.562 121.188 113.466 120.667 113.32L120.665 113.319L104.422 108.859C94.1079 106.023 83.7231 103.451 73.4971 100.354L73.4941 100.353L73.1855 100.248C72.4818 99.976 71.8983 99.5212 71.5664 98.9766C71.202 98.3786 71.1174 97.639 71.5615 96.8008C71.6929 96.5588 71.8632 96.3179 72.0566 96.0645C72.2406 95.8234 72.4639 95.5475 72.6504 95.2881H72.6514C73.8222 93.6584 74.9889 92.0246 76.1553 90.3916C77.3218 88.7585 78.4873 87.1255 79.6572 85.4971L79.6582 85.4961L102.355 53.752L102.354 53.751L112.319 39.8174L115.688 35.1045L115.69 35.1016C115.924 34.7694 116.255 34.4076 116.624 33.9512C116.963 33.5314 117.33 33.0342 117.496 32.5361L117.497 32.5332C117.586 32.2614 117.62 31.9868 117.549 31.7256C117.474 31.4522 117.303 31.2616 117.115 31.1318C116.938 31.0098 116.734 30.9336 116.558 30.8779C116.387 30.8242 116.176 30.7711 116.019 30.7266L116.016 30.7256L111.081 29.3652H111.08L93.4766 24.5254C84.8956 22.1567 76.3291 19.802 67.75 17.4482C67.9534 17.1603 68.0421 16.8126 68.041 16.4805C68.0406 16.3557 68.0255 16.2282 67.999 16.1006C68.9513 16.3617 69.9029 16.6233 70.8545 16.8857C72.2736 17.2771 73.694 17.668 75.1182 18.0557C87.3754 21.4244 99.6334 24.7934 111.891 28.1621C112.494 28.3298 113.42 28.5146 114.334 28.7354C115.278 28.9633 116.269 29.2413 117.116 29.6162C117.975 29.9959 118.618 30.4454 118.948 30.9746C119.253 31.4619 119.337 32.0906 118.911 32.9844C118.476 33.8927 117.85 34.7847 117.163 35.6797C116.49 36.5567 115.734 37.4664 115.112 38.335L93.665 68.3076C90.4544 72.7993 87.2392 77.2913 84.0244 81.7832L74.3848 95.2578C74.3099 95.3619 74.1916 95.5016 74.0371 95.6787C73.8887 95.8488 73.7125 96.0477 73.5459 96.249C73.3795 96.4502 73.2114 96.668 73.0762 96.8828C72.9467 97.0886 72.8178 97.3361 72.7783 97.5928V97.5947C72.7242 97.9553 72.8049 98.2773 73.0078 98.5361C73.1959 98.7759 73.456 98.9185 73.6865 99.0107C73.9204 99.1043 74.1727 99.1652 74.3877 99.2119C74.6208 99.2626 74.793 99.2944 74.9385 99.3359L74.9434 99.3369L89.1309 103.229L123.311 112.623L123.314 112.624C123.942 112.791 124.5 112.909 125.021 113.119C125.461 113.296 125.833 113.525 126.125 113.871L126.245 114.027C126.628 114.581 126.707 115.136 126.599 115.674C126.487 116.229 126.17 116.789 125.725 117.3C124.273 118.956 122.767 120.54 121.271 122.18L121.27 122.181L100.393 145.13L72.3652 175.925V175.926C68.348 180.346 64.3269 184.767 60.3037 189.188L48.2295 202.449L40.9229 210.482C40.6473 210.783 40.3536 211.144 40.0586 211.498C39.7585 211.858 39.4503 212.222 39.127 212.554C38.5065 213.19 37.896 213.643 37.2832 213.769L37.1602 213.789C36.186 213.921 35.4468 213.514 35.0088 212.872C34.5612 212.216 34.4201 211.3 34.7236 210.435L34.7246 210.436C35.0357 209.565 35.4275 208.755 35.8057 207.851L35.8066 207.85C36.645 205.833 37.4792 203.819 38.3135 201.807C39.1477 199.794 39.9822 197.782 40.8203 195.766C45.9448 183.413 51.0698 171.075 56.1943 158.738C58.0448 154.278 59.8957 149.822 61.7461 145.366C63.5965 140.91 65.4464 136.453 67.2969 131.993L67.2959 131.992C67.3547 131.853 67.4237 131.724 67.5117 131.535C67.5921 131.363 67.6801 131.158 67.7363 130.943C67.7929 130.727 67.8242 130.473 67.7666 130.209C67.7069 129.935 67.5598 129.687 67.3232 129.479L67.3223 129.479L67.2334 129.407C67.0199 129.248 66.7586 129.135 66.5068 129.049C66.211 128.948 65.8823 128.87 65.5645 128.806C65.2465 128.742 64.9223 128.689 64.6436 128.641C64.3556 128.591 64.1245 128.547 63.9609 128.503H63.96L47.5137 123.98L28.1064 118.65H28.1074C24.8622 117.751 21.5584 117.088 18.4453 115.987H18.4434C17.6421 115.707 17.2104 115.352 16.9834 114.997C16.7587 114.646 16.6926 114.229 16.7539 113.735C16.8162 113.235 17.006 112.686 17.2588 112.112C17.5132 111.535 17.8089 110.981 18.0791 110.433V110.432L23.1406 100.104C25.9479 94.3703 28.759 88.6406 31.5703 82.9111C34.3817 77.1816 37.1934 71.4515 40.001 65.7178L56.9404 31.1592V31.1582C57.818 29.3635 58.7003 27.5687 59.582 25.7734C60.4637 23.9784 61.3447 22.1823 62.2227 20.3867C62.4707 19.8824 62.7283 19.2691 62.9863 18.7041C63.2525 18.1213 63.5342 17.5552 63.8604 17.0664C64.147 16.6368 64.4539 16.2847 64.7998 16.0371ZM66.0781 15.7744C66.1918 15.6981 66.3467 15.6546 66.5625 15.708C66.8701 15.8389 67.0399 16.1504 67.041 16.4844C67.0416 16.6821 66.9787 16.8323 66.8975 16.918C66.83 16.989 66.7102 17.0602 66.4707 17.0303H66.4717C66.3855 17.0194 66.3016 17.0196 66.2207 17.0283C66.2009 17.0229 66.1809 17.0181 66.1611 17.0127L66.1572 17.0215C65.9718 16.9531 65.8713 16.842 65.8164 16.7246C65.7493 16.5808 65.735 16.3928 65.7871 16.2041C65.8392 16.0153 65.948 15.8619 66.0781 15.7744Z" fill="black" stroke="black"/>
<defs>
<linearGradient id="paint0_linear_1814_756" x1="103.308" y1="57.3213" x2="-17.9099" y2="187.128" gradientUnits="userSpaceOnUse">
<stop stop-color="#E2FFBE"/>
<stop offset="0.29" stop-color="#FF91FF"/>
<stop offset="0.47" stop-color="#FFA1A3"/>
<stop offset="0.67" stop-color="#9977FF"/>
<stop offset="0.86" stop-color="#A6FBFF"/>
<stop offset="0.96" stop-color="#C1FBC4"/>
</linearGradient>
</defs>
</svg>
