<svg width="20" height="14" viewBox="0 0 20 14" fill="none" xmlns="http://www.w3.org/2000/svg">
<path fill-rule="evenodd" clip-rule="evenodd" d="M9.99609 0C8.88819 0 7.59609 0.0249666 6.33656 0.0588497L6.28539 0.0606329C5.00353 0.0954078 3.96912 0.123049 3.15423 0.252341C2.30493 0.386982 1.59981 0.644672 1.03609 1.20018C0.470512 1.75747 0.224001 2.44672 0.107722 3.27151C-0.00390624 4.06509 -0.00390625 5.07089 -0.00390625 6.321V7.67989C-0.00390625 8.92822 -0.00390624 9.93402 0.107722 10.7285C0.22307 11.5533 0.470512 12.2425 1.03609 12.7998C1.59981 13.3562 2.30493 13.613 3.15423 13.7477C3.96912 13.877 5.00353 13.9046 6.28539 13.9394L6.33656 13.9412C7.59702 13.975 8.88819 14 9.99609 14C11.104 14 12.3961 13.975 13.6556 13.9412L13.7068 13.9394C14.9886 13.9046 16.0231 13.877 16.838 13.7477C17.6873 13.613 18.3924 13.3553 18.9561 12.7998C19.5217 12.2425 19.7691 11.5533 19.8845 10.7285C19.9961 9.93491 19.9961 8.92911 19.9961 7.679V6.32011C19.9961 5.07089 19.9961 4.06509 19.8845 3.27151C19.7691 2.44672 19.5217 1.75747 18.9561 1.20018C18.3924 0.64378 17.6873 0.386982 16.838 0.252341C16.0231 0.123049 14.9886 0.0954078 13.7059 0.0606329L13.6556 0.0588497C12.4361 0.0233694 11.2162 0.003751 9.99609 0ZM8.94679 9.36335C8.8407 9.42144 8.72056 9.4518 8.59839 9.45141C8.47621 9.45101 8.35629 9.41987 8.25061 9.3611C8.14494 9.30232 8.05721 9.21798 7.99622 9.11651C7.93523 9.01504 7.90311 8.89999 7.90307 8.78288V5.21623C7.90311 5.09912 7.93523 4.98407 7.99622 4.8826C8.05721 4.78112 8.14494 4.69678 8.25061 4.63801C8.35629 4.57924 8.47621 4.5481 8.59839 4.5477C8.72056 4.5473 8.8407 4.57767 8.94679 4.63576L12.2026 6.41908C12.3093 6.4776 12.398 6.5621 12.4597 6.66403C12.5214 6.76597 12.5538 6.88172 12.5538 6.99955C12.5538 7.11739 12.5214 7.23314 12.4597 7.33507C12.398 7.43701 12.3093 7.52151 12.2026 7.58003L8.94679 9.36335Z" fill="white"/>
</svg>
